<svg width="1024" height="768" viewBox="0 0 1024 768" xmlns="http://www.w3.org/2000/svg">
  <style>
    .triangle-dark {
      fill: rgba(40, 38, 41, 0.2);
    }
    .triangle-light {
      fill: rgba(255, 252, 255, 0.2);
    }
    .warm-linear__stop-1 { stop-color: #F553BF; }
    .warm-linear__stop-2 { stop-color: #FFD24A; }
    .cool-linear__stop-1 { stop-color: #26C99E; }
    .cool-linear__stop-2 { stop-color: rgba(38, 201, 150, 0); }
    .accent-linear__stop-1 { stop-color: #FF4050; }
    .accent-linear__stop-2 { stop-color: rgba(255, 64, 80, 0); }
  </style>
  <defs>
    <pattern id="triangles" width="24" height="48" patternUnits="userSpaceOnUse">
      <path class="triangle-dark" d="M0,0 L24,0 L12,24 Z" />
      <path class="triangle-dark" d="M0,24 L12,24 L0,48 Z" />
      <path class="triangle-dark" d="M12,24 L24,24 L 24,48 Z" />
      <path class="triangle-light" d="M0,0 L12,24 L0,24 Z" />
      <path class="triangle-light" d="M24,0 L24,24 L12,24 Z" />
      <path class="triangle-light" d="M12,24 L24,48 L0,48 Z" />
    </pattern>
    <linearGradient id="warm-linear" x1="0" y1="50%" x2="100%" y2="100%">
      <stop class="warm-linear__stop-1" offset="0%" />
      <stop class="warm-linear__stop-2" offset="100%" />
    </linearGradient>
    <linearGradient id="cool-linear" x1="100%" y1="0" x2="0" y2="100%">
      <stop class="cool-linear__stop-1" offset="0%" />
      <stop class="cool-linear__stop-2" offset="45%" />
    </linearGradient>
    <linearGradient id="accent-linear" x1="0" y1="100%" x2="100%" y2="0">
      <stop class="accent-linear__stop-1" offset="0%" />
      <stop class="accent-linear__stop-2" offset="25%" />
    </linearGradient>
  </defs>
  <rect x="0" y="0" width="100%" height="100%" fill="url(#warm-linear)" />
  <rect x="0" y="0" width="100%" height="100%" fill="url(#cool-linear)" />
  <rect x="0" y="0" width="100%" height="100%" fill="url(#accent-linear)" />
  <rect x="0" y="0" width="100%" height="100%" fill="url(#triangles)" />
</svg>
