<svg fill="none" height="2304" viewBox="0 0 4096 2304" width="4096" xmlns="http://www.w3.org/2000/svg" xmlns:xlink="http://www.w3.org/1999/xlink"><pattern id="a" height="1329.230769" patternUnits="userSpaceOnUse" viewBox="0 0 5408 4320" width="1664"><path d="m0 0h5408v4320h-5408z" fill="#edebe8"/><path clip-rule="evenodd" d="m296.113 238.887-92.113 53.182 32.125 55.641 36.875-21.29v154.149h62.021 5.979 62.021v-154.149l36.876 21.29 32.124-55.641-91.251-52.684c-4.632 19.044-21.8 33.184-42.27 33.184-20.648 0-37.936-14.386-42.387-33.682z" fill="#b97b49" fill-rule="evenodd"/><path clip-rule="evenodd" d="m1006.96 280.022c3.9 3.864 10.18 3.864 14.08 0l41.03-40.672 62.93 36.47-22.8 39.648-24.82-14.383c-4.65 9.722-11.72 27.931-12.07 49.17-.44 26.898 11.41 101.635 15.03 123.792v6.789h-62.34-8-62.338v-6.789c3.622-22.157 15.469-96.894 15.03-123.792-.347-21.239-7.426-39.448-12.07-49.17l-24.818 14.383-22.804-39.648 62.928-36.47z" fill="url(#D)" fill-rule="evenodd"/><path clip-rule="evenodd" d="m1648.11 238.887-92.11 53.182 32.12 55.641 36.88-21.29v154.149h62.02 5.98 62.02v-154.149l36.88 21.29 32.12-55.641-91.25-52.684c-4.63 19.044-21.8 33.184-42.27 33.184-20.65 0-37.94-14.386-42.39-33.682z" fill="#b2889b" fill-rule="evenodd"/><path clip-rule="evenodd" d="m1734 309h-30v32l15 4 15-4z" fill="#bcbcb7" fill-rule="evenodd"/><path clip-rule="evenodd" d="m2324.11 238.887-92.11 53.182 32.12 55.641 36.88-21.29v154.149h62.02 5.98 62.02v-154.149l36.88 21.29 32.12-55.641-91.25-52.684c-4.63 19.044-21.8 33.184-42.27 33.184-20.65 0-37.94-14.386-42.39-33.682z" fill="url(#E)" fill-rule="evenodd"/><path clip-rule="evenodd" d="m3034.96 280.022c3.9 3.864 10.18 3.864 14.08 0l41.03-40.672 62.93 36.47-22.8 39.648-24.82-14.383c-4.65 9.722-11.72 27.931-12.07 49.17-.44 26.898 11.41 101.635 15.03 123.792v6.789h-62.34-8-62.34v-6.789c3.62-22.157 15.47-96.894 15.03-123.792-.35-21.239-7.42-39.448-12.07-49.17l-24.82 14.383-22.8-39.648 62.93-36.47z" fill="#5a5f56" fill-rule="evenodd"/><g mask="url(#b)"><path d="m2915.33 269.577h199.795v290.528h-199.795z" fill="#8b8e87" transform="matrix(.81998408 -.57238633 .57238633 .81998408 370.503626 1717.223191)"/></g><path clip-rule="evenodd" d="m3083 301h-30v32l15 4 15-4z" fill="#b2889b" fill-rule="evenodd"/><path clip-rule="evenodd" d="m634.113 958.887-92.113 53.183 32.125 55.64 36.875-21.29v154.15h62.021 5.979 62.021v-154.15l36.876 21.29 32.124-55.64-91.251-52.685c-4.632 19.045-21.8 33.184-42.27 33.184-20.648 0-37.936-14.386-42.387-33.682z" fill="#42483e" fill-rule="evenodd"/><g mask="url(#c)"><path d="m559 1105.41h134v49h-134z" fill="#73776f" fill-opacity=".5" transform="matrix(.95105652 -.30901699 .30901699 .95105652 -314.231068 226.843116)"/><path d="m559 1132.41h122.167v49h-122.167z" fill="#70a4b9" fill-opacity=".5" transform="matrix(.95105652 -.30901699 .30901699 .95105652 -322.574527 228.16459)"/></g><path clip-rule="evenodd" d="m1344.96 1000.02c3.9 3.87 10.18 3.87 14.08 0l41.03-40.67 62.93 36.47-22.8 39.65-24.82-14.39c-4.65 9.73-11.72 27.94-12.07 49.17-.44 26.9 11.41 101.64 15.03 123.8v6.79h-62.34-8-62.34v-6.79c3.62-22.16 15.47-96.9 15.03-123.8-.35-21.23-7.42-39.44-12.07-49.17l-24.82 14.39-22.8-39.65 62.93-36.47z" fill="#d5d4d0" fill-rule="evenodd"/><g mask="url(#d)"><circle cx="1351.5" cy="1064.5" fill="#bcbcb7" r="89.5"/><circle cx="1351.5" cy="1064.5" fill="#a4a59f" r="71.5"/><circle cx="1351.5" cy="1064.5" fill="#8b8e87" r="54.5"/><circle cx="1351.5" cy="1064.5" fill="#73776f" r="34.5"/></g><path clip-rule="evenodd" d="m2020.96 1000.02c3.9 3.87 10.18 3.87 14.08 0l41.03-40.67 62.93 36.47-22.8 39.65-24.82-14.39c-4.65 9.73-11.72 27.94-12.07 49.17-.44 26.9 11.41 101.64 15.03 123.8v6.79h-62.34-8-62.34v-6.79c3.62-22.16 15.47-96.9 15.03-123.8-.35-21.23-7.42-39.44-12.07-49.17l-24.82 14.39-22.8-39.65 62.93-36.47z" fill="#ab5b51" fill-rule="evenodd"/><path d="m1994 1027h68v73h-68z" fill="#42483e" fill-opacity=".2"/><path clip-rule="evenodd" d="m2662.11 958.887-92.11 53.183 32.12 55.64 36.88-21.29v154.15h62.02 5.98 62.02v-154.15l36.88 21.29 32.12-55.64-91.25-52.685c-4.63 19.045-21.8 33.184-42.27 33.184-20.65 0-37.94-14.386-42.39-33.682z" fill="#5a5f56" fill-rule="evenodd"/><g mask="url(#e)"><path d="m2704 1045 100.46 169.5h-200.92z" fill="#9d7a9a"/></g><path clip-rule="evenodd" d="m3372.96 1000.02c3.9 3.87 10.18 3.87 14.08 0l41.03-40.67 62.93 36.47-22.8 39.65-24.82-14.39c-4.65 9.73-11.72 27.94-12.07 49.17-.44 26.9 11.41 101.64 15.03 123.8v6.79h-62.34-8-62.34v-6.79c3.62-22.16 15.47-96.9 15.03-123.8-.35-21.23-7.42-39.44-12.07-49.17l-24.82 14.39-22.8-39.65 62.93-36.47z" fill="#c49f47" fill-rule="evenodd"/><path d="m3345.77 1029.23 72 72" stroke="#edebe8" stroke-width="5"/><path d="m3342.23 1101.23 72-72" stroke="#edebe8" stroke-width="5"/><circle cx="3380" cy="1032" fill="#edebe8" fill-opacity=".6" r="7"/><circle cx="3380" cy="1092" fill="#edebe8" fill-opacity=".6" r="7"/><circle cx="3350" cy="1062" fill="#edebe8" fill-opacity=".6" r="7"/><circle cx="3410" cy="1062" fill="#edebe8" fill-opacity=".6" r="7"/><path clip-rule="evenodd" d="m972.113 1678.89-92.113 53.18 32.125 55.64 36.875-21.29v154.15h62.02 5.98 62.02v-154.15l36.88 21.29 32.12-55.64-91.25-52.69c-4.63 19.05-21.8 33.19-42.27 33.19-20.648 0-37.936-14.39-42.387-33.68z" fill="#b97b49" fill-rule="evenodd"/><g mask="url(#f)"><path d="m937 1811h154v115h-154z" fill="#bcbcb7"/><path d="m949 1767h130v44h-130z" fill="#d5d4d0"/></g><path clip-rule="evenodd" d="m330.96 1720.02c3.898 3.87 10.182 3.87 14.08 0l41.032-40.67 62.928 36.47-22.803 39.65-24.819-14.39c-4.644 9.73-11.723 27.94-12.07 49.17-.439 26.9 11.409 101.64 15.03 123.8v6.79h-62.336-8.004-62.336v-6.79c3.622-22.16 15.469-96.9 15.03-123.8-.347-21.23-7.426-39.44-12.07-49.17l-24.818 14.39-22.804-39.65 62.928-36.47z" fill="#82ab55" fill-rule="evenodd"/><g mask="url(#g)"><circle cx="279" cy="1712" fill="#42483e" r="12"/><circle cx="279" cy="1762" fill="#42483e" r="12"/><circle cx="229" cy="1737" fill="#42483e" r="12"/><circle cx="279" cy="1812" fill="#42483e" r="12"/><circle cx="279" cy="1862" fill="#42483e" r="12"/><circle cx="279" cy="1912" fill="#42483e" r="12"/><circle cx="319" cy="1687" fill="#42483e" r="12"/><circle cx="319" cy="1737" fill="#42483e" r="12"/><circle cx="319" cy="1787" fill="#42483e" r="12"/><circle cx="319" cy="1837" fill="#42483e" r="12"/><circle cx="319" cy="1887" fill="#42483e" r="12"/><circle cx="369" cy="1712" fill="#42483e" r="12"/><circle cx="369" cy="1762" fill="#42483e" r="12"/><circle cx="369" cy="1812" fill="#42483e" r="12"/><circle cx="369" cy="1862" fill="#42483e" r="12"/><circle cx="369" cy="1912" fill="#42483e" r="12"/><circle cx="419" cy="1687" fill="#42483e" r="12"/><circle cx="419" cy="1737" fill="#42483e" r="12"/></g><path clip-rule="evenodd" d="m1648.11 1678.89-92.11 53.18 32.12 55.64 36.88-21.29v154.15h62.02 5.98 62.02v-154.15l36.88 21.29 32.12-55.64-91.25-52.69c-4.63 19.05-21.8 33.19-42.27 33.19-20.65 0-37.94-14.39-42.39-33.68z" fill="#59b07f" fill-rule="evenodd"/><path clip-rule="evenodd" d="m2324.11 1678.89-92.11 53.18 32.12 55.64 36.88-21.29v154.15h62.02 5.98 62.02v-154.15l36.88 21.29 32.12-55.64-91.25-52.69c-4.63 19.05-21.8 33.19-42.27 33.19-20.65 0-37.94-14.39-42.39-33.68z" fill="#42483e" fill-rule="evenodd"/><g mask="url(#h)"><path d="m2232 1695h268" stroke="#70a4b9" stroke-width="10"/><path d="m2232 1725h268" stroke="#70a4b9" stroke-width="10"/><path d="m2232 1755h268" stroke="#70a4b9" stroke-width="10"/><path d="m2232 1785h268" stroke="#70a4b9" stroke-width="10"/><path d="m2232 1815h268" stroke="#70a4b9" stroke-width="10"/><path d="m2232 1845h268" stroke="#70a4b9" stroke-width="10"/><path d="m2232 1875h268" stroke="#70a4b9" stroke-width="10"/><path d="m2232 1905h268" stroke="#70a4b9" stroke-width="10"/></g><path clip-rule="evenodd" d="m3034.96 1720.02c3.9 3.87 10.18 3.87 14.08 0l41.03-40.67 62.93 36.47-22.8 39.65-24.82-14.39c-4.65 9.73-11.72 27.94-12.07 49.17-.44 26.9 11.41 101.64 15.03 123.8v6.79h-62.34-8-62.34v-6.79c3.62-22.16 15.47-96.9 15.03-123.8-.35-21.23-7.42-39.44-12.07-49.17l-24.82 14.39-22.8-39.65 62.93-36.47z" fill="#a4a59f" fill-rule="evenodd"/><g mask="url(#i)"><path d="m2985 1675h32v250h-32z" fill="#ab5b51" fill-opacity=".6"/><path d="m2925 1675h32v250h-32z" fill="#ab5b51" fill-opacity=".6"/><path d="m3045 1675h32v250h-32z" fill="#ab5b51" fill-opacity=".6"/><path d="m3105 1675h32v250h-32z" fill="#ab5b51" fill-opacity=".6"/><path d="m2920 1698h237v40h-237z" fill="#70a4b9" fill-opacity=".54"/><path d="m2920 1758h237v40h-237z" fill="#70a4b9" fill-opacity=".54"/><path d="m2920 1818h237v40h-237z" fill="#70a4b9" fill-opacity=".54"/><path d="m2920 1878h237v40h-237z" fill="#70a4b9" fill-opacity=".54"/><path d="m2920 1721.5h237" stroke="#82ab55" stroke-opacity=".5" stroke-width="3"/><path d="m2920 1781.5h237" stroke="#82ab55" stroke-opacity=".5" stroke-width="3"/><path d="m2920 1841.5h237" stroke="#82ab55" stroke-opacity=".5" stroke-width="3"/><path d="m2920 1901.5h237" stroke="#82ab55" stroke-opacity=".5" stroke-width="3"/><path d="m2970.5 1675v250" stroke="#c49f47" stroke-opacity=".2" stroke-width="3"/><path d="m3030.5 1675v250" stroke="#c49f47" stroke-opacity=".2" stroke-width="3"/><path d="m3090.5 1675v250" stroke="#c49f47" stroke-opacity=".2" stroke-width="3"/><path d="m3150.5 1675v250" stroke="#c49f47" stroke-opacity=".2" stroke-width="3"/></g><path clip-rule="evenodd" d="m668.96 2440.02c3.898 3.87 10.182 3.87 14.08 0l41.032-40.67 62.928 36.47-22.803 39.65-24.819-14.39c-4.644 9.73-11.723 27.94-12.069 49.17-.44 26.9 11.408 101.64 15.029 123.8v6.79h-62.336-8.004-62.336v-6.79c3.622-22.16 15.469-96.9 15.03-123.8-.347-21.23-7.426-39.44-12.07-49.17l-24.818 14.39-22.804-39.65 62.928-36.47z" fill="url(#F)" fill-rule="evenodd"/><path clip-rule="evenodd" d="m1344.96 2440.02c3.9 3.87 10.18 3.87 14.08 0l41.03-40.67 62.93 36.47-22.8 39.65-24.82-14.39c-4.65 9.73-11.72 27.94-12.07 49.17-.44 26.9 11.41 101.64 15.03 123.8v6.79h-62.34-8-62.34v-6.79c3.62-22.16 15.47-96.9 15.03-123.8-.35-21.23-7.42-39.44-12.07-49.17l-24.82 14.39-22.8-39.65 62.93-36.47z" fill="#9d7a9a" fill-rule="evenodd"/><g mask="url(#j)"><path d="m1255 2399v242" stroke="#42483e" stroke-width="10"/><path d="m1275 2399v242" stroke="#42483e" stroke-width="10"/><path d="m1295 2399v242" stroke="#42483e" stroke-width="10"/><path d="m1315 2399v242" stroke="#42483e" stroke-width="10"/><path d="m1335 2399v242" stroke="#42483e" stroke-width="10"/><path d="m1355 2399v242" stroke="#42483e" stroke-width="10"/><path d="m1375 2399v242" stroke="#42483e" stroke-width="10"/><path d="m1395 2399v242" stroke="#42483e" stroke-width="10"/><path d="m1415 2399v242" stroke="#42483e" stroke-width="10"/><path d="m1435 2399v242" stroke="#42483e" stroke-width="10"/><path d="m1455 2399v242" stroke="#42483e" stroke-width="10"/></g><path clip-rule="evenodd" d="m1986.11 2398.89-92.11 53.18 32.12 55.64 36.88-21.29v154.15h62.02 5.98 62.02v-154.15l36.88 21.29 32.12-55.64-91.25-52.69c-4.63 19.05-21.8 33.19-42.27 33.19-20.65 0-37.94-14.39-42.39-33.68z" fill="#d5d4d0" fill-rule="evenodd"/><path d="m2028 2464 33.77 58.5h-67.54z" stroke="#b2889b" stroke-opacity=".61" stroke-width="5"/><path d="m2028 2495 33.77 58.5h-67.54z" stroke="#b2889b" stroke-opacity=".61" stroke-width="5"/><path clip-rule="evenodd" d="m2696.96 2440.02c3.9 3.87 10.18 3.87 14.08 0l41.03-40.67 62.93 36.47-22.8 39.65-24.82-14.39c-4.65 9.73-11.72 27.94-12.07 49.17-.44 26.9 11.41 101.64 15.03 123.8v6.79h-62.34-8-62.34v-6.79c3.62-22.16 15.47-96.9 15.03-123.8-.35-21.23-7.42-39.44-12.07-49.17l-24.82 14.39-22.8-39.65 62.93-36.47z" fill="#42483e" fill-rule="evenodd"/><circle cx="2704" cy="2498" fill="#b97b49" r="37"/><g mask="url(#k)"><path d="m2674 2505-13 4.5 11.5 25 33 14 33-14 12.5-28-19.5-9-10 4.5-12-13-16 11-5.5-7z" fill="#bcbcb7" stroke="#42483e" stroke-width="5"/></g><path clip-rule="evenodd" d="m3338.11 2398.89-92.11 53.18 32.12 55.64 36.88-21.29v154.15h62.02 5.98 62.02v-154.15l36.88 21.29 32.12-55.64-91.25-52.69c-4.63 19.05-21.8 33.19-42.27 33.19-20.65 0-37.94-14.39-42.39-33.68z" fill="#59b07f" fill-rule="evenodd"/><path clip-rule="evenodd" d="m3425 2469h-30v32l15 4 15-4z" fill="#8b8e87" fill-rule="evenodd"/><g mask="url(#l)"><path d="m3246 2407h69v102h-69z" fill="#8b8e87"/><path d="m3445 2407h69v102h-69z" fill="#8b8e87"/></g><path clip-rule="evenodd" d="m296.113 3118.89-92.113 53.18 32.125 55.64 36.875-21.29v154.15h62.021 5.979 62.021v-154.15l36.876 21.29 32.124-55.64-91.251-52.69c-4.632 19.05-21.8 33.19-42.27 33.19-20.648 0-37.936-14.39-42.387-33.68z" fill="#9d7a9a" fill-rule="evenodd"/><g mask="url(#m)"><path d="m234.255 3147.95h42v248.77h-42z" fill="#42483e" transform="matrix(.70710678 -.70710678 .70710678 .70710678 -2157.325091 1087.656507)"/></g><path clip-rule="evenodd" d="m1006.96 3160.02c3.9 3.87 10.18 3.87 14.08 0l41.03-40.67 62.93 36.47-22.8 39.65-24.82-14.39c-4.65 9.73-11.72 27.94-12.07 49.17-.44 26.9 11.41 101.64 15.03 123.8v6.79h-62.34-8-62.338v-6.79c3.622-22.16 15.469-96.9 15.03-123.8-.347-21.23-7.426-39.44-12.07-49.17l-24.818 14.39-22.804-39.65 62.928-36.47z" fill="url(#G)" fill-rule="evenodd"/><path clip-rule="evenodd" d="m1052 3188h-30v32l15 4 15-4z" fill="#c49f47" fill-rule="evenodd"/><path clip-rule="evenodd" d="m2358.96 3160.02c3.9 3.87 10.18 3.87 14.08 0l41.03-40.67 62.93 36.47-22.8 39.65-24.82-14.39c-4.65 9.73-11.72 27.94-12.07 49.17-.44 26.9 11.41 101.64 15.03 123.8v6.79h-62.34-8-62.34v-6.79c3.62-22.16 15.47-96.9 15.03-123.8-.35-21.23-7.42-39.44-12.07-49.17l-24.82 14.39-22.8-39.65 62.93-36.47z" fill="#b97b49" fill-rule="evenodd"/><g mask="url(#n)"><path d="m2322.5 3319.5-26 24.5-27.5 31.5 182 2.5v-58.5l-21.5 24.5-21-24.5-20 24.5-22-24.5-23 24.5z" stroke="#59b07f" stroke-width="5"/></g><path clip-rule="evenodd" d="m1648.11 3118.89-92.11 53.18 32.12 55.64 36.88-21.29v154.15h62.02 5.98 62.02v-154.15l36.88 21.29 32.12-55.64-91.25-52.69c-4.63 19.05-21.8 33.19-42.27 33.19-20.65 0-37.94-14.39-42.39-33.68z" fill="#70a4b9" fill-rule="evenodd"/><g mask="url(#o)"><circle cx="1632.5" cy="3286.5" fill="#42483e" fill-opacity=".25" r="88.5"/><circle cx="1721.5" cy="3198.5" fill="#42483e" fill-opacity=".25" r="88.5"/></g><path clip-rule="evenodd" d="m3000.11 3118.89-92.11 53.18 32.12 55.64 36.88-21.29v154.15h62.02 5.98 62.02v-154.15l36.88 21.29 32.12-55.64-91.25-52.69c-4.63 19.05-21.8 33.19-42.27 33.19-20.65 0-37.94-14.39-42.39-33.68z" fill="#ab5b51" fill-rule="evenodd"/><path d="m3065 3230-21.18 46.5c-.71 1.56-2.93 1.56-3.64 0l-21.18-46.5c-24-55 70-55 46 0z" fill="#8b8e87"/><path clip-rule="evenodd" d="m668.96 3880.02c3.898 3.87 10.182 3.87 14.08 0l41.032-40.67 62.928 36.47-22.803 39.65-24.819-14.39c-4.644 9.73-11.723 27.94-12.069 49.17-.44 26.9 11.408 101.64 15.029 123.8v6.79h-62.336-8.004-62.336v-6.79c3.622-22.16 15.469-96.9 15.03-123.8-.347-21.23-7.426-39.44-12.07-49.17l-24.818 14.39-22.804-39.65 62.928-36.47z" fill="#5a5f56" fill-rule="evenodd"/><g mask="url(#p)"><path d="m648 3849 52.828 108.75h-105.656z" fill="#b2889b" fill-opacity=".5"/><path d="m704 3849 52.828 108.75h-105.656z" fill="#c49f47" fill-opacity=".5"/></g><path clip-rule="evenodd" d="m1310.11 3838.89-92.11 53.18 32.12 55.64 36.88-21.29v154.15h62.02 5.98 62.02v-154.15l36.88 21.29 32.12-55.64-91.25-52.69c-4.63 19.05-21.8 33.19-42.27 33.19-20.65 0-37.94-14.39-42.39-33.68z" fill="url(#I)" fill-rule="evenodd"/><path clip-rule="evenodd" d="m2020.96 3880.02c3.9 3.87 10.18 3.87 14.08 0l41.03-40.67 62.93 36.47-22.8 39.65-24.82-14.39c-4.65 9.73-11.72 27.94-12.07 49.17-.44 26.9 11.41 101.64 15.03 123.8v6.79h-62.34-8-62.34v-6.79c3.62-22.16 15.47-96.9 15.03-123.8-.35-21.23-7.42-39.44-12.07-49.17l-24.82 14.39-22.8-39.65 62.93-36.47z" fill="#c49f47" fill-rule="evenodd"/><circle cx="2028" cy="3896" fill="#edebe8" r="4"/><circle cx="2028" cy="3909" fill="#edebe8" r="4"/><circle cx="2028" cy="3922" fill="#edebe8" r="4"/><circle cx="2028" cy="3935" fill="#edebe8" r="4"/><circle cx="2028" cy="3948" fill="#edebe8" r="4"/><path clip-rule="evenodd" d="m2696.96 3880.02c3.9 3.87 10.18 3.87 14.08 0l41.03-40.67 62.93 36.47-22.8 39.65-24.82-14.39c-4.65 9.73-11.72 27.94-12.07 49.17-.44 26.9 11.41 101.64 15.03 123.8v6.79h-62.34-8-62.34v-6.79c3.62-22.16 15.47-96.9 15.03-123.8-.35-21.23-7.42-39.44-12.07-49.17l-24.82 14.39-22.8-39.65 62.93-36.47z" fill="#73776f" fill-rule="evenodd"/><path d="m2670 3945.94 11.31 11.31 11.32-11.31 11.31 11.31 11.31-11.31 11.32 11.31 11.31-11.31-33.94-33.94z" fill="#59b07f"/><path clip-rule="evenodd" d="m3338.11 3838.89-92.11 53.18 32.12 55.64 36.88-21.29v154.15h62.02 5.98 62.02v-154.15l36.88 21.29 32.12-55.64-91.25-52.69c-4.63 19.05-21.8 33.19-42.27 33.19-20.65 0-37.94-14.39-42.39-33.68z" fill="#82ab55" fill-rule="evenodd"/><path d="m3344 3911h72v97h-72z" fill="url(#J)"/><path clip-rule="evenodd" d="m3710.96 280.022c3.9 3.864 10.18 3.864 14.08 0l41.03-40.672 62.93 36.47-22.8 39.648-24.82-14.383c-4.65 9.722-11.72 27.931-12.07 49.17-.44 26.897 11.41 101.634 15.03 123.792v6.789h-62.34-8-62.34v-6.789c3.62-22.158 15.47-96.895 15.03-123.792-.35-21.239-7.42-39.448-12.07-49.17l-24.82 14.383-22.8-39.648 62.93-36.47z" fill="#d5d4d0" fill-rule="evenodd"/><path d="m3718 301 6.96 21.42h22.52l-18.22 13.239 6.96 21.421-18.22-13.239-18.22 13.239 6.96-21.421-18.22-13.239h22.52z" fill="#59b07f"/><path clip-rule="evenodd" d="m4014.11 2398.89-92.11 53.18 32.12 55.64 36.88-21.29v154.15h62.02 5.98 62.02v-154.15l36.88 21.29 32.12-55.64-91.25-52.69c-4.63 19.05-21.8 33.19-42.27 33.19-20.65 0-37.94-14.39-42.39-33.68z" fill="#8b8e87" fill-rule="evenodd"/><g mask="url(#q)"><path d="m0-1.5h262" stroke="#42483e" stroke-width="3" transform="matrix(-.707107 .707107 .707107 .707107 4156.26 2423)"/><path d="m0-1.5h241.831" stroke="#42483e" stroke-width="3" transform="matrix(-.707107 .707107 .707107 .707107 4142 2417.26)"/><path d="m0-1.5h223.446" stroke="#42483e" stroke-width="3" transform="matrix(-.707107 .707107 .707107 .707107 4129 2410.26)"/><path d="m0-1.5h203.647" stroke="#42483e" stroke-width="3" transform="matrix(-.707107 .707107 .707107 .707107 4115 2404.26)"/><path d="m0-1.5h189.505" stroke="#42483e" stroke-width="3" transform="matrix(-.707107 .707107 .707107 .707107 4105 2394.26)"/><path d="m0-1.5h125.865" stroke="#42483e" stroke-width="3" transform="matrix(-.707107 .707107 .707107 .707107 4060 2419.26)"/><path d="m0-1.5h141.421" stroke="#42483e" stroke-width="3" transform="matrix(-.707107 .707107 .707107 .707107 4041.26 2418)"/><path d="m0-1.5h134.35" stroke="#42483e" stroke-width="3" transform="matrix(-.707107 .707107 .707107 .707107 4029.26 2410)"/><path d="m0-1.5h131.522" stroke="#42483e" stroke-width="3" transform="matrix(-.707107 .707107 .707107 .707107 4019.26 2400)"/><path d="m0-1.5h131.522" stroke="#42483e" stroke-width="3" transform="matrix(-.707107 .707107 .707107 .707107 4012.26 2387)"/><path d="m0-1.5h87.6812" stroke="#42483e" stroke-width="3" transform="matrix(-.707107 .707107 .707107 .707107 3973.26 2406)"/><path d="m0-1.5h280.014" stroke="#42483e" stroke-width="3" transform="matrix(-.707107 .707107 .707107 .707107 4169 2430.26)"/><path d="m0-1.5h295.571" stroke="#42483e" stroke-width="3" transform="matrix(-.707107 .707107 .707107 .707107 4180 2439.26)"/><path d="m0-1.5h291.328" stroke="#42483e" stroke-width="3" transform="matrix(-.707107 .707107 .707107 .707107 4193 2446.26)"/><path d="m0-1.5h231.931" stroke="#42483e" stroke-width="3" transform="matrix(-.707107 .707107 .707107 .707107 4173.26 2486)"/><path d="m0-1.5h132.936" stroke="#42483e" stroke-width="3" transform="matrix(-.707107 .707107 .707107 .707107 4122.26 2557)"/><path d="m0-1.5h103.238" stroke="#42483e" stroke-width="3" transform="matrix(-.707107 .707107 .707107 .707107 4121.26 2578)"/><path d="m0-1.5h76.3675" stroke="#42483e" stroke-width="3" transform="matrix(-.707107 .707107 .707107 .707107 4122 2597.26)"/><path d="m0-1.5h46.669" stroke="#42483e" stroke-width="3" transform="matrix(-.707107 .707107 .707107 .707107 4121.26 2618)"/></g><path clip-rule="evenodd" d="m5062.96 280.022c3.9 3.864 10.18 3.864 14.08 0l41.03-40.672 62.93 36.47-22.8 39.648-24.82-14.383c-4.65 9.722-11.72 27.931-12.07 49.17-.44 26.897 11.41 101.634 15.03 123.792v6.789h-62.34-8-62.34v-6.789c3.62-22.158 15.47-96.895 15.03-123.792-.35-21.239-7.42-39.448-12.07-49.17l-24.82 14.383-22.8-39.648 62.93-36.47z" fill="#9d7a9a" fill-rule="evenodd"/><path d="m5038 310h64v88h-64z" fill="url(#K)"/><path clip-rule="evenodd" d="m4014.11 958.887-92.11 53.183 32.12 55.64 36.88-21.29v154.15h62.02 5.98 62.02v-154.15l36.88 21.29 32.12-55.64-91.25-52.685c-4.63 19.045-21.8 33.184-42.27 33.184-20.65 0-37.94-14.386-42.39-33.682z" fill="url(#L)" fill-rule="evenodd"/><circle cx="4056" cy="1057" r="35" stroke="#42483e" stroke-width="8"/><path clip-rule="evenodd" d="m3676.11 3118.89-92.11 53.18 32.12 55.64 36.88-21.29v154.15h62.02 5.98 62.02v-154.15l36.88 21.29 32.12-55.64-91.25-52.69c-4.63 19.05-21.8 33.19-42.27 33.19-20.65 0-37.94-14.39-42.39-33.68z" fill="#b2889b" fill-rule="evenodd"/><g mask="url(#r)"><circle cx="3633" cy="3163" fill="#5a5f56" r="6"/><circle cx="3633" cy="3143" fill="#5a5f56" r="6"/><circle cx="3633" cy="3183" fill="#5a5f56" r="6"/><circle cx="3633" cy="3203" fill="#5a5f56" r="6"/><circle cx="3633" cy="3223" fill="#5a5f56" r="6"/><circle cx="3613" cy="3173" fill="#5a5f56" r="6"/><circle cx="3613" cy="3153" fill="#5a5f56" r="6"/><circle cx="3613" cy="3193" fill="#5a5f56" r="6"/><circle cx="3613" cy="3213" fill="#5a5f56" r="6"/><circle cx="3593" cy="3163" fill="#5a5f56" r="6"/><circle cx="3593" cy="3183" fill="#5a5f56" r="6"/><circle cx="3653" cy="3173" fill="#5a5f56" r="6"/><circle cx="3653" cy="3153" fill="#5a5f56" r="6"/><circle cx="3653" cy="3193" fill="#5a5f56" r="6"/><circle cx="3653" cy="3213" fill="#5a5f56" r="6"/><circle cx="3653" cy="3253" fill="#5a5f56" r="6"/><circle cx="3653" cy="3233" fill="#5a5f56" r="6"/><circle cx="3653" cy="3273" fill="#5a5f56" r="6"/><circle cx="3653" cy="3293" fill="#5a5f56" r="6"/><circle cx="3653" cy="3333" fill="#5a5f56" r="6"/><circle cx="3653" cy="3313" fill="#5a5f56" r="6"/><circle cx="3653" cy="3353" fill="#5a5f56" r="6"/><circle cx="3653" cy="3133" fill="#5a5f56" r="6"/><circle cx="3673" cy="3163" fill="#5a5f56" r="6"/><circle cx="3673" cy="3143" fill="#5a5f56" r="6"/><circle cx="3673" cy="3183" fill="#5a5f56" r="6"/><circle cx="3673" cy="3203" fill="#5a5f56" r="6"/><circle cx="3673" cy="3243" fill="#5a5f56" r="6"/><circle cx="3673" cy="3223" fill="#5a5f56" r="6"/><circle cx="3673" cy="3263" fill="#5a5f56" r="6"/><circle cx="3673" cy="3283" fill="#5a5f56" r="6"/><circle cx="3673" cy="3323" fill="#5a5f56" r="6"/><circle cx="3673" cy="3303" fill="#5a5f56" r="6"/><circle cx="3673" cy="3343" fill="#5a5f56" r="6"/><circle cx="3673" cy="3363" fill="#5a5f56" r="6"/><circle cx="3673" cy="3123" fill="#5a5f56" r="6"/><circle cx="3693" cy="3173" fill="#5a5f56" r="6"/><circle cx="3693" cy="3153" fill="#5a5f56" r="6"/><circle cx="3693" cy="3193" fill="#5a5f56" r="6"/><circle cx="3693" cy="3213" fill="#5a5f56" r="6"/><circle cx="3693" cy="3253" fill="#5a5f56" r="6"/><circle cx="3693" cy="3233" fill="#5a5f56" r="6"/><circle cx="3693" cy="3273" fill="#5a5f56" r="6"/><circle cx="3693" cy="3293" fill="#5a5f56" r="6"/><circle cx="3693" cy="3333" fill="#5a5f56" r="6"/><circle cx="3693" cy="3313" fill="#5a5f56" r="6"/><circle cx="3693" cy="3353" fill="#5a5f56" r="6"/><circle cx="3713" cy="3163" fill="#5a5f56" r="6"/><circle cx="3713" cy="3183" fill="#5a5f56" r="6"/><circle cx="3713" cy="3203" fill="#5a5f56" r="6"/><circle cx="3713" cy="3243" fill="#5a5f56" r="6"/><circle cx="3713" cy="3223" fill="#5a5f56" r="6"/><circle cx="3713" cy="3263" fill="#5a5f56" r="6"/><circle cx="3713" cy="3283" fill="#5a5f56" r="6"/><circle cx="3713" cy="3323" fill="#5a5f56" r="6"/><circle cx="3713" cy="3303" fill="#5a5f56" r="6"/><circle cx="3713" cy="3343" fill="#5a5f56" r="6"/><circle cx="3713" cy="3363" fill="#5a5f56" r="6"/><circle cx="3733" cy="3173" fill="#5a5f56" r="6"/><circle cx="3733" cy="3153" fill="#5a5f56" r="6"/><circle cx="3733" cy="3193" fill="#5a5f56" r="6"/><circle cx="3733" cy="3213" fill="#5a5f56" r="6"/><circle cx="3733" cy="3253" fill="#5a5f56" r="6"/><circle cx="3733" cy="3233" fill="#5a5f56" r="6"/><circle cx="3733" cy="3273" fill="#5a5f56" r="6"/><circle cx="3733" cy="3293" fill="#5a5f56" r="6"/><circle cx="3733" cy="3333" fill="#5a5f56" r="6"/><circle cx="3733" cy="3313" fill="#5a5f56" r="6"/><circle cx="3733" cy="3353" fill="#5a5f56" r="6"/><circle cx="3753" cy="3163" fill="#5a5f56" r="6"/><circle cx="3753" cy="3143" fill="#5a5f56" r="6"/><circle cx="3753" cy="3183" fill="#5a5f56" r="6"/><circle cx="3753" cy="3203" fill="#5a5f56" r="6"/><circle cx="3753" cy="3243" fill="#5a5f56" r="6"/><circle cx="3753" cy="3223" fill="#5a5f56" r="6"/><circle cx="3753" cy="3263" fill="#5a5f56" r="6"/><circle cx="3753" cy="3283" fill="#5a5f56" r="6"/><circle cx="3753" cy="3323" fill="#5a5f56" r="6"/><circle cx="3753" cy="3303" fill="#5a5f56" r="6"/><circle cx="3753" cy="3343" fill="#5a5f56" r="6"/><circle cx="3753" cy="3363" fill="#5a5f56" r="6"/><circle cx="3773" cy="3173" fill="#5a5f56" r="6"/><circle cx="3773" cy="3153" fill="#5a5f56" r="6"/><circle cx="3773" cy="3193" fill="#5a5f56" r="6"/><circle cx="3773" cy="3213" fill="#5a5f56" r="6"/><circle cx="3773" cy="3253" fill="#5a5f56" r="6"/><circle cx="3773" cy="3233" fill="#5a5f56" r="6"/><circle cx="3773" cy="3273" fill="#5a5f56" r="6"/><circle cx="3773" cy="3293" fill="#5a5f56" r="6"/><circle cx="3773" cy="3333" fill="#5a5f56" r="6"/><circle cx="3773" cy="3313" fill="#5a5f56" r="6"/><circle cx="3773" cy="3353" fill="#5a5f56" r="6"/><circle cx="3773" cy="3133" fill="#5a5f56" r="6"/><circle cx="3793" cy="3163" fill="#5a5f56" r="6"/><circle cx="3793" cy="3143" fill="#5a5f56" r="6"/><circle cx="3793" cy="3183" fill="#5a5f56" r="6"/><circle cx="3793" cy="3203" fill="#5a5f56" r="6"/><circle cx="3813" cy="3173" fill="#5a5f56" r="6"/><circle cx="3813" cy="3153" fill="#5a5f56" r="6"/><circle cx="3813" cy="3193" fill="#5a5f56" r="6"/><circle cx="3813" cy="3213" fill="#5a5f56" r="6"/><circle cx="3833" cy="3163" fill="#5a5f56" r="6"/><circle cx="3833" cy="3183" fill="#5a5f56" r="6"/><circle cx="3833" cy="3203" fill="#5a5f56" r="6"/><circle cx="3853" cy="3173" fill="#5a5f56" r="6"/></g><path clip-rule="evenodd" d="m3710.96 1720.02c3.9 3.87 10.18 3.87 14.08 0l41.03-40.67 62.93 36.47-22.8 39.65-24.82-14.39c-4.65 9.73-11.72 27.94-12.07 49.17-.44 26.9 11.41 101.64 15.03 123.8v6.79h-62.34-8-62.34v-6.79c3.62-22.16 15.47-96.9 15.03-123.8-.35-21.23-7.42-39.44-12.07-49.17l-24.82 14.39-22.8-39.65 62.93-36.47z" fill="url(#M)" fill-rule="evenodd"/><path d="m3727 1745v-1.5h-1.5v1.5zm30 0h1.5v-1.5h-1.5zm-30 32h-1.5v1.15l1.11.3zm15 4-.39 1.45.39.1.39-.1zm15-4 .39 1.45 1.11-.3v-1.15zm-30-30.5h30v-3h-30zm1.5 30.5v-32h-3v32zm13.89 2.55-15-4-.78 2.9 15 4zm14.22-4-15 4 .78 2.9 15-4zm-1.11-30.55v32h3v-32z" fill="#73776f"/><path clip-rule="evenodd" d="m-7.03987 1000.02c3.898 3.87 10.18175 3.87 14.07974 0l41.03193-40.67 62.9282 36.47-22.8035 39.65-24.8182-14.39c-4.6446 9.73-11.723 27.94-12.0698 49.17-.4393 26.9 11.408 101.64 15.0297 123.8v6.79h-62.33621-8.0038-62.33619v-6.79c3.6216-22.16 15.469-96.9 15.0297-123.8-.3468-21.23-7.4253-39.44-12.0698-49.17l-24.8182 14.39-22.8037-39.65 62.9283-36.47z" fill="#5a5f56" fill-rule="evenodd"/><path clip-rule="evenodd" d="m40 1020h-30v32l15 4 15-4z" fill="#70a4b9" fill-rule="evenodd"/><g mask="url(#s)"><path d="m63 962h50v77h-50z" fill="#70a4b9"/></g><path clip-rule="evenodd" d="m5400.96 1000.02c3.9 3.87 10.18 3.87 14.08 0l41.03-40.67 62.93 36.47-22.8 39.65-24.82-14.39c-4.65 9.73-11.72 27.94-12.07 49.17-.44 26.9 11.41 101.64 15.03 123.8v6.79h-62.34-8-62.34v-6.79c3.62-22.16 15.47-96.9 15.03-123.8-.35-21.23-7.42-39.44-12.07-49.17l-24.82 14.39-22.8-39.65 62.93-36.47z" fill="#5a5f56" fill-rule="evenodd"/><g mask="url(#t)"><path d="m5295 962h50v77h-50z" fill="#70a4b9"/></g><path clip-rule="evenodd" d="m4014.11 3838.89-92.11 53.18 32.12 55.64 36.88-21.29v154.15h62.02 5.98 62.02v-154.15l36.88 21.29 32.12-55.64-91.25-52.69c-4.63 19.05-21.8 33.19-42.27 33.19-20.65 0-37.94-14.39-42.39-33.68z" fill="#a4a59f" fill-rule="evenodd"/><g mask="url(#u)"><path d="m4088 3831h10v256h-10z" fill="#b97b49" fill-opacity=".5"/><path d="m4108 3831h10v256h-10z" fill="#b97b49" fill-opacity=".5"/><path d="m4128 3831h10v256h-10z" fill="#b97b49" fill-opacity=".5"/><path d="m4148 3831h10v256h-10z" fill="#b97b49" fill-opacity=".5"/><path d="m4168 3831h10v256h-10z" fill="#b97b49" fill-opacity=".5"/><path d="m4188 3831h10v256h-10z" fill="#b97b49" fill-opacity=".5"/><path d="m4068 3831h10v256h-10z" fill="#b97b49" fill-opacity=".5"/><path d="m4048 3831h10v256h-10z" fill="#b97b49" fill-opacity=".5"/><path d="m4028 3831h10v256h-10z" fill="#b97b49" fill-opacity=".5"/><path d="m4008 3831h10v256h-10z" fill="#b97b49" fill-opacity=".5"/><path d="m3988 3831h10v256h-10z" fill="#b97b49" fill-opacity=".5"/><path d="m3968 3831h10v256h-10z" fill="#b97b49" fill-opacity=".5"/><path d="m3948 3831h10v256h-10z" fill="#b97b49" fill-opacity=".5"/><path d="m3928 3831h10v256h-10z" fill="#b97b49" fill-opacity=".5"/><path d="m3916 3834h282v10h-282z" fill="#bcbcb7" fill-opacity=".5"/><path d="m3916 3854h282v10h-282z" fill="#bcbcb7" fill-opacity=".5"/><path d="m3916 3874h282v10h-282z" fill="#bcbcb7" fill-opacity=".5"/><path d="m3916 3894h282v10h-282z" fill="#bcbcb7" fill-opacity=".5"/><path d="m3916 3914h282v10h-282z" fill="#bcbcb7" fill-opacity=".5"/><path d="m3916 3934h282v10h-282z" fill="#bcbcb7" fill-opacity=".5"/><path d="m3916 3952h282v10h-282z" fill="#bcbcb7" fill-opacity=".5"/><path d="m3916 3972h282v10h-282z" fill="#bcbcb7" fill-opacity=".5"/><path d="m3916 3992h282v10h-282z" fill="#bcbcb7" fill-opacity=".5"/><path d="m3916 4012h282v10h-282z" fill="#bcbcb7" fill-opacity=".5"/><path d="m3917 4032h282v10h-282z" fill="#bcbcb7" fill-opacity=".5"/><path d="m3917 4052h282v10h-282z" fill="#bcbcb7" fill-opacity=".5"/><path d="m3917 4072h282v10h-282z" fill="#bcbcb7" fill-opacity=".5"/><path d="m3932 3831h2v256h-2z" fill="#c49f47" fill-opacity=".75"/><path d="m3952 3831h2v256h-2z" fill="#c49f47" fill-opacity=".75"/><path d="m3972 3831h2v256h-2z" fill="#c49f47" fill-opacity=".75"/><path d="m3992 3831h2v256h-2z" fill="#c49f47" fill-opacity=".75"/><path d="m4012 3831h2v256h-2z" fill="#c49f47" fill-opacity=".75"/><path d="m4032 3831h2v256h-2z" fill="#c49f47" fill-opacity=".75"/><path d="m4052 3831h2v256h-2z" fill="#c49f47" fill-opacity=".75"/><path d="m4072 3831h2v256h-2z" fill="#c49f47" fill-opacity=".75"/><path d="m4092 3831h2v256h-2z" fill="#c49f47" fill-opacity=".75"/><path d="m4112 3831h2v256h-2z" fill="#c49f47" fill-opacity=".75"/><path d="m4132 3831h2v256h-2z" fill="#c49f47" fill-opacity=".75"/><path d="m4152 3831h2v256h-2z" fill="#c49f47" fill-opacity=".75"/><path d="m4172 3831h2v256h-2z" fill="#c49f47" fill-opacity=".75"/></g><path clip-rule="evenodd" d="m4386.96 3160.02c3.9 3.87 10.18 3.87 14.08 0l41.03-40.67 62.93 36.47-22.8 39.65-24.82-14.39c-4.65 9.73-11.72 27.94-12.07 49.17-.44 26.9 11.41 101.64 15.03 123.8v6.79h-62.34-8-62.34v-6.79c3.62-22.16 15.47-96.9 15.03-123.8-.35-21.23-7.42-39.44-12.07-49.17l-24.82 14.39-22.8-39.65 62.93-36.47z" fill="#42483e" fill-rule="evenodd"/><g mask="url(#v)"><path d="m4290 3138h30v30h-30z" stroke="#bcbcb7" stroke-width="2"/><path d="m4320 3168h30v30h-30z" stroke="#bcbcb7" stroke-width="2"/><path d="m4440 3168h30v30h-30z" stroke="#bcbcb7" stroke-width="2"/><path d="m4470 3138h30v30h-30z" stroke="#bcbcb7" stroke-width="2"/><path d="m4440 3108h30v30h-30z" stroke="#bcbcb7" stroke-width="2"/><path d="m4350 3198h30v30h-30z" stroke="#bcbcb7" stroke-width="2"/><path d="m4380 3228h30v30h-30z" stroke="#bcbcb7" stroke-width="2"/><path d="m4410 3198h30v30h-30z" stroke="#bcbcb7" stroke-width="2"/><path d="m4380 3168h30v30h-30z" stroke="#bcbcb7" stroke-width="2"/><path d="m4410 3138h30v30h-30z" stroke="#bcbcb7" stroke-width="2"/><path d="m4350 3258h30v30h-30z" stroke="#bcbcb7" stroke-width="2"/><path d="m4320 3228h30v30h-30z" stroke="#bcbcb7" stroke-width="2"/><path d="m4320 3288h30v30h-30z" stroke="#bcbcb7" stroke-width="2"/><path d="m4350 3318h30v30h-30z" stroke="#bcbcb7" stroke-width="2"/><path d="m4410 3318h30v30h-30z" stroke="#bcbcb7" stroke-width="2"/><path d="m4380 3288h30v30h-30z" stroke="#bcbcb7" stroke-width="2"/><path d="m4410 3258h30v30h-30z" stroke="#bcbcb7" stroke-width="2"/><path d="m4440 3228h30v30h-30z" stroke="#bcbcb7" stroke-width="2"/><path d="m4440 3288h30v30h-30z" stroke="#bcbcb7" stroke-width="2"/><path d="m4440 3348h30v30h-30z" stroke="#bcbcb7" stroke-width="2"/><path d="m4320 3348h30v30h-30z" stroke="#bcbcb7" stroke-width="2"/><path d="m4380 3348h30v30h-30z" stroke="#bcbcb7" stroke-width="2"/><path d="m4350 3138h30v30h-30z" stroke="#bcbcb7" stroke-width="2"/><path d="m4320 3108h30v30h-30z" stroke="#bcbcb7" stroke-width="2"/></g><path clip-rule="evenodd" d="m4724.96 1000.02c3.9 3.87 10.18 3.87 14.08 0l41.03-40.67 62.93 36.47-22.8 39.65-24.82-14.39c-4.65 9.73-11.72 27.94-12.07 49.17-.44 26.9 11.41 101.64 15.03 123.8v6.79h-62.34-8-62.34v-6.79c3.62-22.16 15.47-96.9 15.03-123.8-.35-21.23-7.42-39.44-12.07-49.17l-24.82 14.39-22.8-39.65 62.93-36.47z" fill="url(#N)" fill-rule="evenodd"/><g mask="url(#w)"><path d="m4668 1022h128v47h-128z" fill="#42483e"/></g><path clip-rule="evenodd" d="m5062.96 3160.02c3.9 3.87 10.18 3.87 14.08 0l41.03-40.67 62.93 36.47-22.8 39.65-24.82-14.39c-4.65 9.73-11.72 27.94-12.07 49.17-.44 26.9 11.41 101.64 15.03 123.8v6.79h-62.34-8-62.34v-6.79c3.62-22.16 15.47-96.9 15.03-123.8-.35-21.23-7.42-39.44-12.07-49.17l-24.82 14.39-22.8-39.65 62.93-36.47z" fill="#a4a59f" fill-rule="evenodd"/><path clip-rule="evenodd" d="m5028.11 1678.89-92.11 53.18 32.12 55.64 36.88-21.29v154.15h62.02 5.98 62.02v-154.15l36.88 21.29 32.12-55.64-91.25-52.69c-4.63 19.05-21.8 33.19-42.27 33.19-20.65 0-37.94-14.39-42.39-33.68z" fill="#5a5f56" fill-rule="evenodd"/><path d="m5040 1771c8-9 22-9 30 0s22 9 30 0" stroke="#9d7a9a" stroke-width="5"/><path d="m5040 1786c8-9 22-9 30 0s22 9 30 0" stroke="#9d7a9a" stroke-width="5"/><path d="m5040 1756c8-9 22-9 30 0s22 9 30 0" stroke="#9d7a9a" stroke-width="5"/><path clip-rule="evenodd" d="m4724.96 3880.02c3.9 3.87 10.18 3.87 14.08 0l41.03-40.67 62.93 36.47-22.8 39.65-24.82-14.39c-4.65 9.73-11.72 27.94-12.07 49.17-.44 26.9 11.41 101.64 15.03 123.8v6.79h-62.34-8-62.34v-6.79c3.62-22.16 15.47-96.9 15.03-123.8-.35-21.23-7.42-39.44-12.07-49.17l-24.82 14.39-22.8-39.65 62.93-36.47z" fill="url(#O)" fill-rule="evenodd"/><g mask="url(#x)"><path d="m4645.06 3849.94 158 158" stroke="#42483e" stroke-width="3"/><path d="m4633.06 3857.94 170 170" stroke="#42483e" stroke-width="3"/><path d="m4622.06 3866.94 181 181" stroke="#42483e" stroke-width="3"/><path d="m4622.06 3886.94 181 181" stroke="#42483e" stroke-width="3"/><path d="m4672.06 3956.94 131 131" stroke="#42483e" stroke-width="3"/><path d="m4672.06 3976.94 112 112" stroke="#42483e" stroke-width="3"/><path d="m4672.06 3996.94 91 91" stroke="#42483e" stroke-width="3"/><path d="m4672.06 4016.94 69 69" stroke="#42483e" stroke-width="3"/><path d="m4672.06 4036.94 49 49" stroke="#42483e" stroke-width="3"/><path d="m4662.06 4046.94 40 40" stroke="#42483e" stroke-width="3"/><path d="m4662.06 4066.94 18 18" stroke="#42483e" stroke-width="3"/><path d="m4658.06 3842.94 145 145" stroke="#42483e" stroke-width="3"/><path d="m4670.06 3834.94 133 133" stroke="#42483e" stroke-width="3"/><path d="m4730.06 3874.94 73 73" stroke="#42483e" stroke-width="3"/><path d="m4739.06 3863.94 64 64" stroke="#42483e" stroke-width="3"/><path d="m4749.06 3853.94 62 62" stroke="#42483e" stroke-width="3"/><path d="m4761.06 3845.94 67 67" stroke="#42483e" stroke-width="3"/><path d="m4771.06 3835.94 65 65" stroke="#42483e" stroke-width="3"/><path d="m4795.06 3839.94 48 48" stroke="#42483e" stroke-width="3"/></g><path clip-rule="evenodd" d="m4352.11 238.887-92.11 53.182 32.12 55.641 36.88-21.29v154.149h62.02 5.98 62.02v-154.149l36.88 21.29 32.12-55.641-91.25-52.684c-4.63 19.045-21.8 33.184-42.27 33.184-20.65 0-37.94-14.386-42.39-33.682z" fill="#b2889b" fill-rule="evenodd"/><g mask="url(#y)"><path d="m4378.5 370 77-140 93.5 53-66.5 213.5-33 12z" fill="url(#P)"/></g><path clip-rule="evenodd" d="m-7.03987 2440.02c3.898 3.87 10.18175 3.87 14.07974 0l41.03193-40.67 62.9282 36.47-22.8035 39.65-24.8182-14.39c-4.6445 9.73-11.723 27.94-12.0698 49.17-.4393 26.9 11.408 101.64 15.0297 123.8v6.79h-62.33621-8.0038-62.33619v-6.79c3.6216-22.16 15.469-96.9 15.0297-123.8-.3468-21.23-7.4253-39.44-12.0698-49.17l-24.8182 14.39-22.8037-39.65 62.9282-36.47z" fill="#bcbcb7" fill-rule="evenodd"/><path d="m-30 2469h60v14h-60z" fill="#ab5b51"/><path d="m-30 2483h60v14h-60z" fill="#b97b49"/><path d="m-30 2497h60v14h-60z" fill="#c49f47"/><path d="m-30 2511h60v14h-60z" fill="#82ab55"/><path clip-rule="evenodd" d="m5400.96 2440.02c3.9 3.87 10.18 3.87 14.08 0l41.03-40.67 62.93 36.47-22.8 39.65-24.82-14.39c-4.65 9.73-11.72 27.94-12.07 49.17-.44 26.9 11.41 101.64 15.03 123.8v6.79h-62.34-8-62.34v-6.79c3.62-22.16 15.47-96.9 15.03-123.8-.35-21.23-7.42-39.44-12.07-49.17l-24.82 14.39-22.8-39.65 62.93-36.47z" fill="#bcbcb7" fill-rule="evenodd"/><path d="m5378 2469h60v14h-60z" fill="#ab5b51"/><path d="m5378 2483h60v14h-60z" fill="#b97b49"/><path d="m5378 2497h60v14h-60z" fill="#c49f47"/><path d="m5378 2511h60v14h-60z" fill="#82ab55"/><path clip-rule="evenodd" d="m-41.8873 3838.89-92.1127 53.18 32.125 55.64 36.875-21.29v154.15h62.02112 5.97888 62.0211v-154.15l36.8759 21.29 32.124-55.64-91.2515-52.69c-4.6316 19.05-21.7993 33.19-42.2695 33.19-20.6479 0-37.9357-14.39-42.3873-33.68z" fill="#59b07f" fill-rule="evenodd"/><g mask="url(#z)"><path clip-rule="evenodd" d="m10 3898v10h3v-10h10v-3h-10v-10h-3v10h-10v3z" fill="#d5d4d0" fill-rule="evenodd"/><path clip-rule="evenodd" d="m10 3940v10h3v-10h10v-3h-10v-10h-3v10h-10v3z" fill="#d5d4d0" fill-rule="evenodd"/><path clip-rule="evenodd" d="m10 3982v10h3v-10h10v-3h-10v-10h-3v10h-10v3z" fill="#d5d4d0" fill-rule="evenodd"/><path clip-rule="evenodd" d="m10 4024v10h3v-10h10v-3h-10v-10h-3v10h-10v3z" fill="#d5d4d0" fill-rule="evenodd"/><path clip-rule="evenodd" d="m10 4066v10h3v-10h10v-3h-10v-10h-3v10h-10v3z" fill="#d5d4d0" fill-rule="evenodd"/><path clip-rule="evenodd" d="m33 3919v10h3v-10h10v-3h-10v-10h-3v10h-10v3z" fill="#d5d4d0" fill-rule="evenodd"/><path clip-rule="evenodd" d="m33 3877v10h3v-10h10v-3h-10v-10h-3v10h-10v3z" fill="#d5d4d0" fill-rule="evenodd"/><path clip-rule="evenodd" d="m33 3961v10h3v-10h10v-3h-10v-10h-3v10h-10v3z" fill="#d5d4d0" fill-rule="evenodd"/><path clip-rule="evenodd" d="m33 4003v10h3v-10h10v-3h-10v-10h-3v10h-10v3z" fill="#d5d4d0" fill-rule="evenodd"/><path clip-rule="evenodd" d="m33 4045v10h3v-10h10v-3h-10v-10h-3v10h-10v3z" fill="#d5d4d0" fill-rule="evenodd"/><path clip-rule="evenodd" d="m33 4087v10h3v-10h10v-3h-10v-10h-3v10h-10v3z" fill="#d5d4d0" fill-rule="evenodd"/><path clip-rule="evenodd" d="m56 3898v10h3v-10h10v-3h-10v-10h-3v10h-10v3z" fill="#d5d4d0" fill-rule="evenodd"/><path clip-rule="evenodd" d="m56 3856v10h3v-10h10v-3h-10v-10h-3v10h-10v3z" fill="#d5d4d0" fill-rule="evenodd"/><path clip-rule="evenodd" d="m56 3940v10h3v-10h10v-3h-10v-10h-3v10h-10v3z" fill="#d5d4d0" fill-rule="evenodd"/><path clip-rule="evenodd" d="m56 3982v10h3v-10h10v-3h-10v-10h-3v10h-10v3z" fill="#d5d4d0" fill-rule="evenodd"/><path clip-rule="evenodd" d="m56 4024v10h3v-10h10v-3h-10v-10h-3v10h-10v3z" fill="#d5d4d0" fill-rule="evenodd"/><path clip-rule="evenodd" d="m56 4066v10h3v-10h10v-3h-10v-10h-3v10h-10v3z" fill="#d5d4d0" fill-rule="evenodd"/><path clip-rule="evenodd" d="m79 3919v10h3v-10h10v-3h-10v-10h-3v10h-10v3z" fill="#d5d4d0" fill-rule="evenodd"/><path clip-rule="evenodd" d="m79 3877v10h3v-10h10v-3h-10v-10h-3v10h-10v3z" fill="#d5d4d0" fill-rule="evenodd"/><path clip-rule="evenodd" d="m102 3898v10h3v-10h10v-3h-10v-10h-3v10h-10v3z" fill="#d5d4d0" fill-rule="evenodd"/><path clip-rule="evenodd" d="m102 3940v10h3v-10h10v-3h-10v-10h-3v10h-10v3z" fill="#d5d4d0" fill-rule="evenodd"/><path clip-rule="evenodd" d="m125 3919v10h3v-10h10v-3h-10v-10h-3v10h-10v3z" fill="#d5d4d0" fill-rule="evenodd"/><path clip-rule="evenodd" d="m125 3877v10h3v-10h10v-3h-10v-10h-3v10h-10v3z" fill="#d5d4d0" fill-rule="evenodd"/></g><path clip-rule="evenodd" d="m5366.11 3838.89-92.11 53.18 32.12 55.64 36.88-21.29v154.15h62.02 5.98 62.02v-154.15l36.88 21.29 32.12-55.64-91.25-52.69c-4.63 19.05-21.8 33.19-42.27 33.19-20.65 0-37.94-14.39-42.39-33.68z" fill="#59b07f" fill-rule="evenodd"/><g mask="url(#A)"><path clip-rule="evenodd" d="m5372 3898v10h3v-10h10v-3h-10v-10h-3v10h-10v3z" fill="#d5d4d0" fill-rule="evenodd"/><path clip-rule="evenodd" d="m5372 3856v10h3v-10h10v-3h-10v-10h-3v10h-10v3z" fill="#d5d4d0" fill-rule="evenodd"/><path clip-rule="evenodd" d="m5372 3940v10h3v-10h10v-3h-10v-10h-3v10h-10v3z" fill="#d5d4d0" fill-rule="evenodd"/><path clip-rule="evenodd" d="m5372 3982v10h3v-10h10v-3h-10v-10h-3v10h-10v3z" fill="#d5d4d0" fill-rule="evenodd"/><path clip-rule="evenodd" d="m5372 4024v10h3v-10h10v-3h-10v-10h-3v10h-10v3z" fill="#d5d4d0" fill-rule="evenodd"/><path clip-rule="evenodd" d="m5372 4066v10h3v-10h10v-3h-10v-10h-3v10h-10v3z" fill="#d5d4d0" fill-rule="evenodd"/><path clip-rule="evenodd" d="m5395 3919v10h3v-10h10v-3h-10v-10h-3v10h-10v3z" fill="#d5d4d0" fill-rule="evenodd"/><path clip-rule="evenodd" d="m5395 3877v10h3v-10h10v-3h-10v-10h-3v10h-10v3z" fill="#d5d4d0" fill-rule="evenodd"/><path clip-rule="evenodd" d="m5395 3961v10h3v-10h10v-3h-10v-10h-3v10h-10v3z" fill="#d5d4d0" fill-rule="evenodd"/><path clip-rule="evenodd" d="m5395 4003v10h3v-10h10v-3h-10v-10h-3v10h-10v3z" fill="#d5d4d0" fill-rule="evenodd"/><path clip-rule="evenodd" d="m5395 4045v10h3v-10h10v-3h-10v-10h-3v10h-10v3z" fill="#d5d4d0" fill-rule="evenodd"/><path clip-rule="evenodd" d="m5395 4087v10h3v-10h10v-3h-10v-10h-3v10h-10v3z" fill="#d5d4d0" fill-rule="evenodd"/><path clip-rule="evenodd" d="m5326 3898v10h3v-10h10v-3h-10v-10h-3v10h-10v3z" fill="#d5d4d0" fill-rule="evenodd"/><path clip-rule="evenodd" d="m5326 3856v10h3v-10h10v-3h-10v-10h-3v10h-10v3z" fill="#d5d4d0" fill-rule="evenodd"/><path clip-rule="evenodd" d="m5326 3940v10h3v-10h10v-3h-10v-10h-3v10h-10v3z" fill="#d5d4d0" fill-rule="evenodd"/><path clip-rule="evenodd" d="m5349 3919v10h3v-10h10v-3h-10v-10h-3v10h-10v3z" fill="#d5d4d0" fill-rule="evenodd"/><path clip-rule="evenodd" d="m5349 3877v10h3v-10h10v-3h-10v-10h-3v10h-10v3z" fill="#d5d4d0" fill-rule="evenodd"/><path clip-rule="evenodd" d="m5349 3961v10h3v-10h10v-3h-10v-10h-3v10h-10v3z" fill="#d5d4d0" fill-rule="evenodd"/><path clip-rule="evenodd" d="m5349 4003v10h3v-10h10v-3h-10v-10h-3v10h-10v3z" fill="#d5d4d0" fill-rule="evenodd"/><path clip-rule="evenodd" d="m5349 4045v10h3v-10h10v-3h-10v-10h-3v10h-10v3z" fill="#d5d4d0" fill-rule="evenodd"/><path clip-rule="evenodd" d="m5349 4087v10h3v-10h10v-3h-10v-10h-3v10h-10v3z" fill="#d5d4d0" fill-rule="evenodd"/><path clip-rule="evenodd" d="m5280 3898v10h3v-10h10v-3h-10v-10h-3v10h-10v3z" fill="#d5d4d0" fill-rule="evenodd"/><path clip-rule="evenodd" d="m5303 3919v10h3v-10h10v-3h-10v-10h-3v10h-10v3z" fill="#d5d4d0" fill-rule="evenodd"/><path clip-rule="evenodd" d="m5303 3877v10h3v-10h10v-3h-10v-10h-3v10h-10v3z" fill="#d5d4d0" fill-rule="evenodd"/></g><path clip-rule="evenodd" d="m4386.96 1720.02c3.9 3.87 10.18 3.87 14.08 0l41.03-40.67 62.93 36.47-22.8 39.65-24.82-14.39c-4.65 9.73-11.72 27.94-12.07 49.17-.44 26.9 11.41 101.64 15.03 123.8v6.79h-62.34-8-62.34v-6.79c3.62-22.16 15.47-96.9 15.03-123.8-.35-21.23-7.42-39.44-12.07-49.17l-24.82 14.39-22.8-39.65 62.93-36.47z" fill="#c49f47" fill-rule="evenodd"/><g mask="url(#B)"><path d="m4326 1921.5c12.5-106.5 29-136.5-3-230l16-9c17.31 51.81 37.5 59 56 59v180z" fill="#42483e"/><path d="m4462 1921.5c-12.5-106.5-29-136.5 3-230l-16-9c-17.31 51.81-37.5 59-56 59v180z" fill="#42483e"/></g><path clip-rule="evenodd" d="m4690.11 2398.89-92.11 53.18 32.12 55.64 36.88-21.29v154.15h62.02 5.98 62.02v-154.15l36.88 21.29 32.12-55.64-91.25-52.69c-4.63 19.05-21.8 33.19-42.27 33.19-20.65 0-37.94-14.39-42.39-33.68z" fill="#b97b49" fill-rule="evenodd"/><g mask="url(#C)"><rect fill="#42483e" height="66" rx="3" width="6" x="4729" y="2426"/></g></pattern><mask id="b" height="242" maskUnits="userSpaceOnUse" width="223" x="2931" y="239"><path clip-rule="evenodd" d="m3034.96 280.022c3.9 3.864 10.18 3.864 14.08 0l41.03-40.672 62.93 36.47-22.8 39.648-24.82-14.383c-4.65 9.722-11.72 27.931-12.07 49.17-.44 26.898 11.41 101.635 15.03 123.792v6.789h-62.34-8-62.34v-6.789c3.62-22.157 15.47-96.894 15.03-123.792-.35-21.239-7.42-39.448-12.07-49.17l-24.82 14.383-22.8-39.648 62.93-36.47z" fill="#c4c4c4" fill-rule="evenodd"/></mask><mask id="c" height="243" maskUnits="userSpaceOnUse" width="269" x="542" y="958"><path clip-rule="evenodd" d="m634.113 958.887-92.113 53.183 32.125 55.64 36.875-21.29v154.15h62.021 5.979 62.021v-154.15l36.876 21.29 32.124-55.64-91.251-52.685c-4.632 19.045-21.8 33.184-42.27 33.184-20.648 0-37.936-14.386-42.387-33.682z" fill="#c4c4c4" fill-rule="evenodd"/></mask><mask id="d" height="242" maskUnits="userSpaceOnUse" width="223" x="1241" y="959"><path clip-rule="evenodd" d="m1344.96 1000.02c3.9 3.87 10.18 3.87 14.08 0l41.03-40.67 62.93 36.47-22.8 39.65-24.82-14.39c-4.65 9.73-11.72 27.94-12.07 49.17-.44 26.9 11.41 101.64 15.03 123.8v6.79h-62.34-8-62.34v-6.79c3.62-22.16 15.47-96.9 15.03-123.8-.35-21.23-7.42-39.44-12.07-49.17l-24.82 14.39-22.8-39.65 62.93-36.47z" fill="#c4c4c4" fill-rule="evenodd"/></mask><mask id="e" height="243" maskUnits="userSpaceOnUse" width="269" x="2570" y="958"><path clip-rule="evenodd" d="m2662.11 958.887-92.11 53.183 32.12 55.64 36.88-21.29v154.15h62.02 5.98 62.02v-154.15l36.88 21.29 32.12-55.64-91.25-52.685c-4.63 19.044-21.8 33.184-42.27 33.184-20.65 0-37.94-14.386-42.39-33.682z" fill="#c4c4c4" fill-rule="evenodd"/></mask><mask id="f" height="243" maskUnits="userSpaceOnUse" width="269" x="880" y="1678"><path clip-rule="evenodd" d="m972.113 1678.89-92.113 53.18 32.125 55.64 36.875-21.29v154.15h62.02 5.98 62.02v-154.15l36.88 21.29 32.12-55.64-91.25-52.69c-4.63 19.05-21.8 33.19-42.27 33.19-20.648 0-37.936-14.39-42.387-33.68z" fill="#c4c4c4" fill-rule="evenodd"/></mask><mask id="g" height="242" maskUnits="userSpaceOnUse" width="223" x="227" y="1679"><path clip-rule="evenodd" d="m330.96 1720.02c3.898 3.87 10.182 3.87 14.08 0l41.032-40.67 62.928 36.47-22.803 39.65-24.819-14.39c-4.644 9.73-11.723 27.94-12.07 49.17-.439 26.9 11.409 101.64 15.03 123.8v6.79h-62.336-8.004-62.336v-6.79c3.622-22.16 15.469-96.9 15.03-123.8-.347-21.23-7.426-39.44-12.07-49.17l-24.818 14.39-22.804-39.65 62.928-36.47z" fill="#c4c4c4" fill-rule="evenodd"/></mask><mask id="h" height="243" maskUnits="userSpaceOnUse" width="269" x="2232" y="1678"><path clip-rule="evenodd" d="m2324.11 1678.89-92.11 53.18 32.12 55.64 36.88-21.29v154.15h62.02 5.98 62.02v-154.15l36.88 21.29 32.12-55.64-91.25-52.69c-4.63 19.05-21.8 33.19-42.27 33.19-20.65 0-37.94-14.39-42.39-33.68z" fill="#c4c4c4" fill-rule="evenodd"/></mask><mask id="i" height="242" maskUnits="userSpaceOnUse" width="223" x="2931" y="1679"><path clip-rule="evenodd" d="m3034.96 1720.02c3.9 3.87 10.18 3.87 14.08 0l41.03-40.67 62.93 36.47-22.8 39.65-24.82-14.39c-4.65 9.73-11.72 27.94-12.07 49.17-.44 26.9 11.41 101.64 15.03 123.8v6.79h-62.34-8-62.34v-6.79c3.62-22.16 15.47-96.9 15.03-123.8-.35-21.23-7.42-39.44-12.07-49.17l-24.82 14.39-22.8-39.65 62.93-36.47z" fill="#c4c4c4" fill-rule="evenodd"/></mask><mask id="j" height="242" maskUnits="userSpaceOnUse" width="223" x="1241" y="2399"><path clip-rule="evenodd" d="m1344.96 2440.02c3.9 3.87 10.18 3.87 14.08 0l41.03-40.67 62.93 36.47-22.8 39.65-24.82-14.39c-4.65 9.73-11.72 27.94-12.07 49.17-.44 26.9 11.41 101.64 15.03 123.8v6.79h-62.34-8-62.34v-6.79c3.62-22.16 15.47-96.9 15.03-123.8-.35-21.23-7.42-39.44-12.07-49.17l-24.82 14.39-22.8-39.65 62.93-36.47z" fill="#c4c4c4" fill-rule="evenodd"/></mask><mask id="k" height="74" maskUnits="userSpaceOnUse" width="74" x="2667" y="2461"><circle cx="2704" cy="2498" fill="#b97b49" r="37"/></mask><mask id="l" height="243" maskUnits="userSpaceOnUse" width="269" x="3246" y="2398"><path clip-rule="evenodd" d="m3338.11 2398.89-92.11 53.18 32.12 55.64 36.88-21.29v154.15h62.02 5.98 62.02v-154.15l36.88 21.29 32.12-55.64-91.25-52.69c-4.63 19.05-21.8 33.19-42.27 33.19-20.65 0-37.94-14.39-42.39-33.68z" fill="#c4c4c4" fill-rule="evenodd"/></mask><mask id="m" height="243" maskUnits="userSpaceOnUse" width="269" x="204" y="3118"><path clip-rule="evenodd" d="m296.113 3118.89-92.113 53.18 32.125 55.64 36.875-21.29v154.15h62.021 5.979 62.021v-154.15l36.876 21.29 32.124-55.64-91.251-52.69c-4.632 19.05-21.8 33.19-42.27 33.19-20.648 0-37.936-14.39-42.387-33.68z" fill="#c4c4c4" fill-rule="evenodd"/></mask><mask id="n" height="242" maskUnits="userSpaceOnUse" width="223" x="2255" y="3119"><path clip-rule="evenodd" d="m2358.96 3160.02c3.9 3.87 10.18 3.87 14.08 0l41.03-40.67 62.93 36.47-22.8 39.65-24.82-14.39c-4.65 9.73-11.72 27.94-12.07 49.17-.44 26.9 11.41 101.64 15.03 123.8v6.79h-62.34-8-62.34v-6.79c3.62-22.16 15.47-96.9 15.03-123.8-.35-21.23-7.42-39.44-12.07-49.17l-24.82 14.39-22.8-39.65 62.93-36.47z" fill="#c4c4c4" fill-rule="evenodd"/></mask><mask id="o" height="243" maskUnits="userSpaceOnUse" width="269" x="1556" y="3118"><path clip-rule="evenodd" d="m1648.11 3118.89-92.11 53.18 32.12 55.64 36.88-21.29v154.15h62.02 5.98 62.02v-154.15l36.88 21.29 32.12-55.64-91.25-52.69c-4.63 19.05-21.8 33.19-42.27 33.19-20.65 0-37.94-14.39-42.39-33.68z" fill="#c4c4c4" fill-rule="evenodd"/></mask><mask id="p" height="242" maskUnits="userSpaceOnUse" width="223" x="565" y="3839"><path clip-rule="evenodd" d="m668.96 3880.02c3.898 3.87 10.182 3.87 14.08 0l41.032-40.67 62.928 36.47-22.803 39.65-24.819-14.39c-4.644 9.73-11.723 27.94-12.069 49.17-.44 26.9 11.408 101.64 15.029 123.8v6.79h-62.336-8.004-62.336v-6.79c3.622-22.16 15.469-96.9 15.03-123.8-.347-21.23-7.426-39.44-12.07-49.17l-24.818 14.39-22.804-39.65 62.928-36.47z" fill="#c4c4c4" fill-rule="evenodd"/></mask><mask id="q" height="243" maskUnits="userSpaceOnUse" width="269" x="3922" y="2398"><path clip-rule="evenodd" d="m4014.11 2398.89-92.11 53.18 32.12 55.64 36.88-21.29v154.15h62.02 5.98 62.02v-154.15l36.88 21.29 32.12-55.64-91.25-52.69c-4.63 19.05-21.8 33.19-42.27 33.19-20.65 0-37.94-14.39-42.39-33.68z" fill="#c4c4c4" fill-rule="evenodd"/></mask><mask id="r" height="243" maskUnits="userSpaceOnUse" width="269" x="3584" y="3118"><path clip-rule="evenodd" d="m3676.11 3118.89-92.11 53.18 32.12 55.64 36.88-21.29v154.15h62.02 5.98 62.02v-154.15l36.88 21.29 32.12-55.64-91.25-52.69c-4.63 19.05-21.8 33.19-42.27 33.19-20.65 0-37.94-14.39-42.39-33.68z" fill="#c4c4c4" fill-rule="evenodd"/></mask><mask id="s" height="242" maskUnits="userSpaceOnUse" width="223" x="-111" y="959"><path clip-rule="evenodd" d="m-7.03987 1000.02c3.898 3.87 10.18175 3.87 14.07974 0l41.03193-40.67 62.9282 36.47-22.8035 39.65-24.8182-14.39c-4.6446 9.73-11.723 27.94-12.0698 49.17-.4393 26.9 11.408 101.64 15.0297 123.8v6.79h-62.33621-8.0038-62.33619v-6.79c3.6216-22.16 15.469-96.9 15.0297-123.8-.3468-21.23-7.4253-39.44-12.0698-49.17l-24.8182 14.39-22.8037-39.65 62.9283-36.47z" fill="#c4c4c4" fill-rule="evenodd"/></mask><mask id="t" height="242" maskUnits="userSpaceOnUse" width="223" x="5297" y="959"><path clip-rule="evenodd" d="m5400.96 1000.02c3.9 3.87 10.18 3.87 14.08 0l41.03-40.67 62.93 36.47-22.8 39.65-24.82-14.39c-4.65 9.73-11.72 27.94-12.07 49.17-.44 26.9 11.41 101.64 15.03 123.8v6.79h-62.34-8-62.34v-6.79c3.62-22.16 15.47-96.9 15.03-123.8-.35-21.23-7.42-39.44-12.07-49.17l-24.82 14.39-22.8-39.65 62.93-36.47z" fill="#c4c4c4" fill-rule="evenodd"/></mask><mask id="u" height="243" maskUnits="userSpaceOnUse" width="269" x="3922" y="3838"><path clip-rule="evenodd" d="m4014.11 3838.89-92.11 53.18 32.12 55.64 36.88-21.29v154.15h62.02 5.98 62.02v-154.15l36.88 21.29 32.12-55.64-91.25-52.69c-4.63 19.05-21.8 33.19-42.27 33.19-20.65 0-37.94-14.39-42.39-33.68z" fill="#c4c4c4" fill-rule="evenodd"/></mask><mask id="v" height="242" maskUnits="userSpaceOnUse" width="223" x="4283" y="3119"><path clip-rule="evenodd" d="m4386.96 3160.02c3.9 3.87 10.18 3.87 14.08 0l41.03-40.67 62.93 36.47-22.8 39.65-24.82-14.39c-4.65 9.73-11.72 27.94-12.07 49.17-.44 26.9 11.41 101.64 15.03 123.8v6.79h-62.34-8-62.34v-6.79c3.62-22.16 15.47-96.9 15.03-123.8-.35-21.23-7.42-39.44-12.07-49.17l-24.82 14.39-22.8-39.65 62.93-36.47z" fill="#c4c4c4" fill-rule="evenodd"/></mask><mask id="w" height="242" maskUnits="userSpaceOnUse" width="223" x="4621" y="959"><path clip-rule="evenodd" d="m4724.96 1000.02c3.9 3.87 10.18 3.87 14.08 0l41.03-40.67 62.93 36.47-22.8 39.65-24.82-14.39c-4.65 9.73-11.72 27.94-12.07 49.17-.44 26.9 11.41 101.64 15.03 123.8v6.79h-62.34-8-62.34v-6.79c3.62-22.16 15.47-96.9 15.03-123.8-.35-21.23-7.42-39.44-12.07-49.17l-24.82 14.39-22.8-39.65 62.93-36.47z" fill="#c4c4c4" fill-rule="evenodd"/></mask><mask id="x" height="242" maskUnits="userSpaceOnUse" width="223" x="4621" y="3839"><path clip-rule="evenodd" d="m4724.96 3880.02c3.9 3.87 10.18 3.87 14.08 0l41.03-40.67 62.93 36.47-22.8 39.65-24.82-14.39c-4.65 9.73-11.72 27.94-12.07 49.17-.44 26.9 11.41 101.64 15.03 123.8v6.79h-62.34-8-62.34v-6.79c3.62-22.16 15.47-96.9 15.03-123.8-.35-21.23-7.42-39.44-12.07-49.17l-24.82 14.39-22.8-39.65 62.93-36.47z" fill="#c4c4c4" fill-rule="evenodd"/></mask><mask id="y" height="243" maskUnits="userSpaceOnUse" width="269" x="4260" y="238"><path clip-rule="evenodd" d="m4352.11 238.887-92.11 53.182 32.12 55.641 36.88-21.29v154.149h62.02 5.98 62.02v-154.149l36.88 21.29 32.12-55.641-91.25-52.684c-4.63 19.045-21.8 33.184-42.27 33.184-20.65 0-37.94-14.386-42.39-33.682z" fill="#c4c4c4" fill-rule="evenodd"/></mask><mask id="z" height="243" maskUnits="userSpaceOnUse" width="269" x="-134" y="3838"><path clip-rule="evenodd" d="m-41.8873 3838.89-92.1127 53.18 32.125 55.64 36.875-21.29v154.15h62.02112 5.97888 62.0211v-154.15l36.8759 21.29 32.124-55.64-91.2515-52.69c-4.6316 19.05-21.7993 33.19-42.2695 33.19-20.6479 0-37.9357-14.39-42.3873-33.68z" fill="#c4c4c4" fill-rule="evenodd"/></mask><mask id="A" height="243" maskUnits="userSpaceOnUse" width="269" x="5274" y="3838"><path clip-rule="evenodd" d="m5366.11 3838.89-92.11 53.18 32.12 55.64 36.88-21.29v154.15h62.02 5.98 62.02v-154.15l36.88 21.29 32.12-55.64-91.25-52.69c-4.63 19.05-21.8 33.19-42.27 33.19-20.65 0-37.94-14.39-42.39-33.68z" fill="#c4c4c4" fill-rule="evenodd"/></mask><mask id="B" height="242" maskUnits="userSpaceOnUse" width="223" x="4283" y="1679"><path clip-rule="evenodd" d="m4386.96 1720.02c3.9 3.87 10.18 3.87 14.08 0l41.03-40.67 62.93 36.47-22.8 39.65-24.82-14.39c-4.65 9.73-11.72 27.94-12.07 49.17-.44 26.9 11.41 101.64 15.03 123.8v6.79h-62.34-8-62.34v-6.79c3.62-22.16 15.47-96.9 15.03-123.8-.35-21.23-7.42-39.44-12.07-49.17l-24.82 14.39-22.8-39.65 62.93-36.47z" fill="#c4c4c4" fill-rule="evenodd"/></mask><mask id="C" height="243" maskUnits="userSpaceOnUse" width="269" x="4598" y="2398"><path clip-rule="evenodd" d="m4690.11 2398.89-92.11 53.18 32.12 55.64 36.88-21.29v154.15h62.02 5.98 62.02v-154.15l36.88 21.29 32.12-55.64-91.25-52.69c-4.63 19.05-21.8 33.19-42.27 33.19-20.65 0-37.94-14.39-42.39-33.68z" fill="#c4c4c4" fill-rule="evenodd"/></mask><linearGradient id="D" gradientUnits="userSpaceOnUse" x1="1014" x2="1014" y1="239.35" y2="480.836"><stop offset="0" stop-color="#70a4b9"/><stop offset="1" stop-color="#59b07f"/></linearGradient><radialGradient id="E" cx="0" cy="0" gradientTransform="matrix(0 120.841 -134.011 0 2366.01 359.728)" gradientUnits="userSpaceOnUse" r="1"><stop offset="0" stop-color="#c49f47"/><stop offset="1" stop-color="#c49f47" stop-opacity=".71"/></radialGradient><radialGradient id="F" cx="0" cy="0" gradientTransform="matrix(0 120.743 -111 0 676 2520.09)" gradientUnits="userSpaceOnUse" r="1"><stop offset="0" stop-color="#c49f47"/><stop offset="1" stop-color="#82ab55"/></radialGradient><linearGradient id="G" gradientUnits="userSpaceOnUse" x1="1014" x2="1014" y1="3119.35" y2="3360.84"><stop offset="0" stop-color="#8b8e87"/><stop offset="1" stop-color="#a4a59f"/></linearGradient><linearGradient id="H"><stop offset="0" stop-color="#ab5b51"/><stop offset="1" stop-color="#ab5b51" stop-opacity=".75"/></linearGradient><linearGradient id="I" gradientUnits="userSpaceOnUse" x1="1352.01" x2="1352.01" xlink:href="#H" y1="3838.89" y2="4080.57"/><linearGradient id="J" gradientUnits="userSpaceOnUse" x1="3380" x2="3380" y1="3911" y2="4008"><stop offset="0" stop-color="#c49f47"/><stop offset="1" stop-color="#c49f47" stop-opacity="0"/></linearGradient><linearGradient id="K" gradientUnits="userSpaceOnUse" x1="5070" x2="5070" y1="310" y2="398"><stop offset="0" stop-color="#70a4b9"/><stop offset="1" stop-color="#70a4b9" stop-opacity="0"/></linearGradient><linearGradient id="L" gradientUnits="userSpaceOnUse" x1="4056.01" x2="4056.01" y1="958.887" y2="1200.57"><stop offset="0" stop-color="#70a4b9"/><stop offset="1" stop-color="#70a4b9" stop-opacity=".6"/></linearGradient><linearGradient id="M" gradientUnits="userSpaceOnUse" x1="3718" x2="3718" y1="1679.35" y2="1920.84"><stop offset="0" stop-color="#b2889b"/><stop offset="1" stop-color="#b2889b" stop-opacity=".67"/></linearGradient><linearGradient id="N" gradientUnits="userSpaceOnUse" x1="4732" x2="4732" xlink:href="#H" y1="959.35" y2="1200.84"/><linearGradient id="O" gradientUnits="userSpaceOnUse" x1="4732" x2="4732" y1="3839.35" y2="4080.84"><stop offset="0" stop-color="#82ab55"/><stop offset="1" stop-color="#59b07f"/></linearGradient><linearGradient id="P" gradientUnits="userSpaceOnUse" x1="4463.75" x2="4463.75" y1="230" y2="508.5"><stop offset="0" stop-color="#82ab55"/><stop offset="1" stop-color="#82ab55" stop-opacity=".4"/></linearGradient><linearGradient id="Q"><stop offset="0" stop-color="#70a4b9"/><stop offset="1" stop-color="#70a4b9" stop-opacity=".67"/></linearGradient><linearGradient id="R" gradientUnits="userSpaceOnUse" x1="305.533" x2="305.533" xlink:href="#Q" y1="239" y2="481"/><linearGradient id="S" gradientUnits="userSpaceOnUse" x1="370.467" x2="370.467" xlink:href="#Q" y1="239" y2="481"/><rect fill="url(#a)" height="100%" width="100%"/><svg fill="none" height="221.538462" viewBox="0 0 676 720" width="208" x="1976" xmlns="http://www.w3.org/2000/svg" y="1107.692308"><path d="m0 0h676v720h-676z" fill="#edebe8"/><g clip-rule="evenodd" fill-rule="evenodd"><path d="m276.304 281.14-3.237 195.794c-.037 2.235 1.765 4.066 4 4.066h37.25c2.082 0 3.815-1.596 3.987-3.671l14.159-171.329h5.537v-67h-48.005zm16.228-5.865c1.593-4.74 2.278-9.759 2.783-16.452l2.992.226c-.51 6.757-1.216 12.078-2.932 17.182-1.721 5.121-4.428 9.939-8.836 15.759l-2.391-1.811c4.277-5.648 6.796-10.179 8.384-14.904z" fill="url(#R)"/><path d="m386.005 239 13.691 42.14 3.237 195.794c.037 2.235-1.765 4.066-4 4.066h-37.25c-2.082 0-3.815-1.596-3.987-3.671l-14.159-171.329h-5.537v-67zm-2.537 36.275c-1.593-4.74-2.278-9.759-2.783-16.452l-2.992.226c.51 6.757 1.216 12.078 2.932 17.182 1.721 5.121 4.428 9.939 8.836 15.759l2.391-1.811c-4.277-5.648-6.796-10.179-8.384-14.904z" fill="url(#S)"/></g></svg></svg>