<svg height="1800" viewBox="-1440 -900 2880 1800" width="2880" xmlns="http://www.w3.org/2000/svg" xmlns:xlink="http://www.w3.org/1999/xlink"><pattern id="a" height="36" patternTransform="matrix(.92387953 .38268343 -.38268343 .92387953 0 0)" patternUnits="userSpaceOnUse" width="36"><path d="m6 0 4 4h16l4-4 6 6-4 4v16l4 4-6 6-4-4h-16l-4 4-6-6 4-4v-16l-4-4z" fill="none" stroke="#474247"/></pattern><pattern id="b" height="360" patternTransform="matrix(.92387953 -.38268343 .38268343 .92387953 0 0)" patternUnits="userSpaceOnUse" width="360"><path d="m60 0 40 40h160l40-40 60 60-40 40v160l40 40-60 60-40-40h-160l-40 40-60-60 40-40v-160l-40-40z" fill="none" stroke="#656066" stroke-width="2"/></pattern><radialGradient id="c"><stop offset=".25" stop-color="#282629"/><stop offset="1" stop-color="#282629" stop-opacity="0"/></radialGradient><linearGradient id="d" x1="0" x2="1" y1="0" y2="1"><stop offset=".25" stop-color="#ff4050" stop-opacity="0"/><stop offset=".9" stop-color="#ff4050"/></linearGradient><linearGradient id="e" x1="0" x2="1" y1="0" y2="1"><stop offset=".25" stop-color="#f28144" stop-opacity="0"/><stop offset=".9" stop-color="#f28144"/></linearGradient><linearGradient id="f" x1="0" x2="1" y1="0" y2="1"><stop offset=".25" stop-color="#ffd24a" stop-opacity="0"/><stop offset=".9" stop-color="#ffd24a"/></linearGradient><linearGradient id="g" x1="0" x2="1" y1="0" y2="1"><stop offset=".25" stop-color="#a4cc35" stop-opacity="0"/><stop offset=".9" stop-color="#a4cc35"/></linearGradient><linearGradient id="h" x1="0" x2="1" y1="0" y2="1"><stop offset=".25" stop-color="#26c99e" stop-opacity="0"/><stop offset=".9" stop-color="#26c99e"/></linearGradient><linearGradient id="i" x1="0" x2="1" y1="0" y2="1"><stop offset=".25" stop-color="#66bfff" stop-opacity="0"/><stop offset=".9" stop-color="#66bfff"/></linearGradient><linearGradient id="j" x1="0" x2="1" y1="0" y2="1"><stop offset=".25" stop-color="#cc78fa" stop-opacity="0"/><stop offset=".9" stop-color="#cc78fa"/></linearGradient><linearGradient id="k" x1="0" x2="1" y1="0" y2="1"><stop offset=".25" stop-color="#f553bf" stop-opacity="0"/><stop offset=".9" stop-color="#f553bf"/></linearGradient><path d="m-1440-900h2880v1800h-2880z" fill="#282629"/><path d="m-1440-900h2880v1800h-2880z" fill="url(#a)"/><path d="m-1440-900h2880v1800h-2880z" fill="url(#b)"/><circle fill="url(#c)" r="1200"/><path d="m0-300 212.13 87.87v424.26z" fill="url(#d)"/><path d="m0-300 212.13 87.87v424.26z" fill="url(#e)" transform="matrix(.70710678 -.70710678 .70710678 .70710678 0 0)"/><path d="m0-300 212.13 87.87v424.26z" fill="url(#f)" transform="rotate(-90)"/><path d="m0-300 212.13 87.87v424.26z" fill="url(#g)" transform="matrix(-.70710678 -.70710678 .70710678 -.70710678 0 0)"/><path d="m0-300 212.13 87.87v424.26z" fill="url(#h)" transform="scale(-1)"/><path d="m0-300 212.13 87.87v424.26z" fill="url(#i)" transform="matrix(-.70710678 .70710678 -.70710678 -.70710678 0 0)"/><path d="m0-300 212.13 87.87v424.26z" fill="url(#j)" transform="matrix(0 1 -1 0 0 0)"/><path d="m0-300 212.13 87.87v424.26z" fill="url(#k)" transform="matrix(.70710678 .70710678 -.70710678 .70710678 0 0)"/></svg>