<svg xmlns="http://www.w3.org/2000/svg" viewBox="0 0 1920 1080">
  <rect width="100%" height="100%" fill="#F0F3FE"/>
  <rect width="150" height="500" x="920" y="500" fill="#CE9295" stroke="rgba(0,0,0,0.05)" stroke-width="3" rx="20" transform="rotate(12 960 540)"/>
  <rect width="150" height="500" x="920" y="500" fill="#C06868" stroke="rgba(0,0,0,0.05)" stroke-width="3" rx="20" transform="rotate(33 960 540)"/>
  <rect width="150" height="500" x="920" y="500" fill="#BC6D47" stroke="rgba(0,0,0,0.05)" stroke-width="3" rx="20" transform="rotate(39 960 540)"/>
  <rect width="150" height="500" x="920" y="500" fill="#B17629" stroke="rgba(0,0,0,0.05)" stroke-width="3" rx="20" transform="rotate(59 960 540)"/>
  <rect width="150" height="500" x="920" y="500" fill="#996727" stroke="rgba(0,0,0,0.05)" stroke-width="3" rx="20" transform="rotate(71 960 540)"/>
  <rect width="150" height="500" x="920" y="500" fill="#D1B594" stroke="rgba(0,0,0,0.05)" stroke-width="3" rx="20" transform="rotate(91 960 540)"/>
  <rect width="150" height="500" x="920" y="500" fill="#676973" stroke="rgba(0,0,0,0.05)" stroke-width="3" rx="20" transform="rotate(99 960 540)"/>
  <rect width="150" height="500" x="920" y="500" fill="#585A63" stroke="rgba(0,0,0,0.05)" stroke-width="3" rx="20" transform="rotate(120 960 540)"/>
  <rect width="150" height="500" x="920" y="500" fill="#494A53" stroke="rgba(0,0,0,0.05)" stroke-width="3" rx="20" transform="rotate(133 960 540)"/>
  <rect width="150" height="500" x="920" y="500" fill="#BB6784" stroke="rgba(0,0,0,0.05)" stroke-width="3" rx="20" transform="rotate(143 960 540)"/>
  <rect width="150" height="500" x="920" y="500" fill="#E0C9D9" stroke="rgba(0,0,0,0.05)" stroke-width="3" rx="20" transform="rotate(163 960 540)"/>
  <rect width="150" height="500" x="920" y="500" fill="#82848D" stroke="rgba(0,0,0,0.05)" stroke-width="3" rx="20" transform="rotate(174 960 540)"/>
  <rect width="150" height="500" x="920" y="500" fill="#A4A6B0" stroke="rgba(0,0,0,0.05)" stroke-width="3" rx="20" transform="rotate(189 960 540)"/>
  <rect width="150" height="500" x="920" y="500" fill="#8E90C0" stroke="rgba(0,0,0,0.05)" stroke-width="3" rx="20" transform="rotate(211 960 540)"/>
  <rect width="150" height="500" x="920" y="500" fill="#787ACF" stroke="rgba(0,0,0,0.05)" stroke-width="3" rx="20" transform="rotate(225 960 540)"/>
  <rect width="150" height="500" x="920" y="500" fill="#3E88C5" stroke="rgba(0,0,0,0.05)" stroke-width="3" rx="20" transform="rotate(236 960 540)"/>
  <rect width="150" height="500" x="920" y="500" fill="#44698C" stroke="rgba(0,0,0,0.05)" stroke-width="3" rx="20" transform="rotate(249 960 540)"/>
  <rect width="150" height="500" x="920" y="500" fill="#97BEE2" stroke="rgba(0,0,0,0.05)" stroke-width="3" rx="20" transform="rotate(268 960 540)"/>
  <rect width="150" height="500" x="920" y="500" fill="#2C2E36" stroke="rgba(0,0,0,0.05)" stroke-width="3" rx="20" transform="rotate(282 960 540)"/>
  <rect width="150" height="500" x="920" y="500" fill="#13141B" stroke="rgba(0,0,0,0.05)" stroke-width="3" rx="20" transform="rotate(296 960 540)"/>
  <rect width="150" height="500" x="920" y="500" fill="#778D35" stroke="rgba(0,0,0,0.05)" stroke-width="3" rx="20" transform="rotate(309 960 540)"/>
  <rect width="150" height="500" x="920" y="500" fill="#5C914E" stroke="rgba(0,0,0,0.05)" stroke-width="3" rx="20" transform="rotate(333 960 540)"/>
  <rect width="150" height="500" x="920" y="500" fill="#419466" stroke="rgba(0,0,0,0.05)" stroke-width="3" rx="20" transform="rotate(343 960 540)"/>
  <rect width="150" height="500" x="920" y="500" fill="#CCCED9" stroke="rgba(0,0,0,0.05)" stroke-width="3" rx="20" transform="rotate(3 960 540)"/>
</svg>
