<svg xmlns="http://www.w3.org/2000/svg" viewBox="0 0 1920 1080">
  <rect width="100%" height="100%" fill="#2C2E36"/>
  <rect width="150" height="500" x="920" y="500" fill="#B78182" stroke="rgba(0,0,0,0.05)" stroke-width="3" rx="20" transform="rotate(15 960 540)"/>
  <rect width="150" height="500" x="920" y="500" fill="#F2A4A2" stroke="rgba(0,0,0,0.05)" stroke-width="3" rx="20" transform="rotate(26 960 540)"/>
  <rect width="150" height="500" x="920" y="500" fill="#EFA987" stroke="rgba(0,0,0,0.05)" stroke-width="3" rx="20" transform="rotate(49 960 540)"/>
  <rect width="150" height="500" x="920" y="500" fill="#E4B073" stroke="rgba(0,0,0,0.05)" stroke-width="3" rx="20" transform="rotate(57 960 540)"/>
  <rect width="150" height="500" x="920" y="500" fill="#E7BB88" stroke="rgba(0,0,0,0.05)" stroke-width="3" rx="20" transform="rotate(75 960 540)"/>
  <rect width="150" height="500" x="920" y="500" fill="#886F55" stroke="rgba(0,0,0,0.05)" stroke-width="3" rx="20" transform="rotate(88 960 540)"/>
  <rect width="150" height="500" x="920" y="500" fill="#CCCED9" stroke="rgba(0,0,0,0.05)" stroke-width="3" rx="20" transform="rotate(108 960 540)"/>
  <rect width="150" height="500" x="920" y="500" fill="#D7D9E4" stroke="rgba(0,0,0,0.05)" stroke-width="3" rx="20" transform="rotate(121 960 540)"/>
  <rect width="150" height="500" x="920" y="500" fill="#E1E3EE" stroke="rgba(0,0,0,0.05)" stroke-width="3" rx="20" transform="rotate(131 960 540)"/>
  <rect width="150" height="500" x="920" y="500" fill="#EEA3BB" stroke="rgba(0,0,0,0.05)" stroke-width="3" rx="20" transform="rotate(144 960 540)"/>
  <rect width="150" height="500" x="920" y="500" fill="#66515E" stroke="rgba(0,0,0,0.05)" stroke-width="3" rx="20" transform="rotate(165 960 540)"/>
  <rect width="150" height="500" x="920" y="500" fill="#B7BAC4" stroke="rgba(0,0,0,0.05)" stroke-width="3" rx="20" transform="rotate(183 960 540)"/>
  <rect width="150" height="500" x="920" y="500" fill="#A4A6B0" stroke="rgba(0,0,0,0.05)" stroke-width="3" rx="20" transform="rotate(189 960 540)"/>
  <rect width="150" height="500" x="920" y="500" fill="#B4AAD4" stroke="rgba(0,0,0,0.05)" stroke-width="3" rx="20" transform="rotate(210 960 540)"/>
  <rect width="150" height="500" x="920" y="500" fill="#C4AEF7" stroke="rgba(0,0,0,0.05)" stroke-width="3" rx="20" transform="rotate(223 960 540)"/>
  <rect width="150" height="500" x="920" y="500" fill="#83C0F5" stroke="rgba(0,0,0,0.05)" stroke-width="3" rx="20" transform="rotate(241 960 540)"/>
  <rect width="150" height="500" x="920" y="500" fill="#B2D2F2" stroke="rgba(0,0,0,0.05)" stroke-width="3" rx="20" transform="rotate(253 960 540)"/>
  <rect width="150" height="500" x="920" y="500" fill="#587796" stroke="rgba(0,0,0,0.05)" stroke-width="3" rx="20" transform="rotate(268 960 540)"/>
  <rect width="150" height="500" x="920" y="500" fill="#F0F3FE" stroke="rgba(0,0,0,0.05)" stroke-width="3" rx="20" transform="rotate(283 960 540)"/>
  <rect width="150" height="500" x="920" y="500" fill="#FAFBFE" stroke="rgba(0,0,0,0.05)" stroke-width="3" rx="20" transform="rotate(294 960 540)"/>
  <rect width="150" height="500" x="920" y="500" fill="#AFC37A" stroke="rgba(0,0,0,0.05)" stroke-width="3" rx="20" transform="rotate(308 960 540)"/>
  <rect width="150" height="500" x="920" y="500" fill="#9BC78D" stroke="rgba(0,0,0,0.05)" stroke-width="3" rx="20" transform="rotate(331 960 540)"/>
  <rect width="150" height="500" x="920" y="500" fill="#86CAA0" stroke="rgba(0,0,0,0.05)" stroke-width="3" rx="20" transform="rotate(344 960 540)"/>
  <rect width="150" height="500" x="920" y="500" fill="#676973" stroke="rgba(0,0,0,0.05)" stroke-width="3" rx="20" transform="rotate(-6 960 540)"/>
</svg>
