<svg xmlns="http://www.w3.org/2000/svg" viewBox="0 0 1920 1080">
  <rect width="100%" height="100%" fill="#E4E4E7"/>
  <rect width="150" height="500" x="920" y="500" fill="#B87879" stroke="rgba(0,0,0,0.05)" stroke-width="3" rx="20" transform="rotate(16 960 540)"/>
  <rect width="150" height="500" x="920" y="500" fill="#A54A4A" stroke="rgba(0,0,0,0.05)" stroke-width="3" rx="20" transform="rotate(26 960 540)"/>
  <rect width="150" height="500" x="920" y="500" fill="#B06740" stroke="rgba(0,0,0,0.05)" stroke-width="3" rx="20" transform="rotate(48 960 540)"/>
  <rect width="150" height="500" x="920" y="500" fill="#9A7932" stroke="rgba(0,0,0,0.05)" stroke-width="3" rx="20" transform="rotate(63 960 540)"/>
  <rect width="150" height="500" x="920" y="500" fill="#8B6E32" stroke="rgba(0,0,0,0.05)" stroke-width="3" rx="20" transform="rotate(77 960 540)"/>
  <rect width="150" height="500" x="920" y="500" fill="#BFAF8D" stroke="rgba(0,0,0,0.05)" stroke-width="3" rx="20" transform="rotate(93 960 540)"/>
  <rect width="150" height="500" x="920" y="500" fill="#7F7E81" stroke="rgba(0,0,0,0.05)" stroke-width="3" rx="20" transform="rotate(103 960 540)"/>
  <rect width="150" height="500" x="920" y="500" fill="#737175" stroke="rgba(0,0,0,0.05)" stroke-width="3" rx="20" transform="rotate(118 960 540)"/>
  <rect width="150" height="500" x="920" y="500" fill="#666468" stroke="rgba(0,0,0,0.05)" stroke-width="3" rx="20" transform="rotate(139 960 540)"/>
  <rect width="150" height="500" x="920" y="500" fill="#904C6A" stroke="rgba(0,0,0,0.05)" stroke-width="3" rx="20" transform="rotate(149 960 540)"/>
  <rect width="150" height="500" x="920" y="500" fill="#CBB6C2" stroke="rgba(0,0,0,0.05)" stroke-width="3" rx="20" transform="rotate(167 960 540)"/>
  <rect width="150" height="500" x="920" y="500" fill="#98979B" stroke="rgba(0,0,0,0.05)" stroke-width="3" rx="20" transform="rotate(184 960 540)"/>
  <rect width="150" height="500" x="920" y="500" fill="#B1B1B4" stroke="rgba(0,0,0,0.05)" stroke-width="3" rx="20" transform="rotate(199 960 540)"/>
  <rect width="150" height="500" x="920" y="500" fill="#8E7F97" stroke="rgba(0,0,0,0.05)" stroke-width="3" rx="20" transform="rotate(204 960 540)"/>
  <rect width="150" height="500" x="920" y="500" fill="#6A4D7A" stroke="rgba(0,0,0,0.05)" stroke-width="3" rx="20" transform="rotate(228 960 540)"/>
  <rect width="150" height="500" x="920" y="500" fill="#407596" stroke="rgba(0,0,0,0.05)" stroke-width="3" rx="20" transform="rotate(239 960 540)"/>
  <rect width="150" height="500" x="920" y="500" fill="#536D7F" stroke="rgba(0,0,0,0.05)" stroke-width="3" rx="20" transform="rotate(250 960 540)"/>
  <rect width="150" height="500" x="920" y="500" fill="#92ADBF" stroke="rgba(0,0,0,0.05)" stroke-width="3" rx="20" transform="rotate(266 960 540)"/>
  <rect width="150" height="500" x="920" y="500" fill="#4C4B4E" stroke="rgba(0,0,0,0.05)" stroke-width="3" rx="20" transform="rotate(287 960 540)"/>
  <rect width="150" height="500" x="920" y="500" fill="#333135" stroke="rgba(0,0,0,0.05)" stroke-width="3" rx="20" transform="rotate(298 960 540)"/>
  <rect width="150" height="500" x="920" y="500" fill="#448943" stroke="rgba(0,0,0,0.05)" stroke-width="3" rx="20" transform="rotate(315 960 540)"/>
  <rect width="150" height="500" x="920" y="500" fill="#408358" stroke="rgba(0,0,0,0.05)" stroke-width="3" rx="20" transform="rotate(326 960 540)"/>
  <rect width="150" height="500" x="920" y="500" fill="#3B7D6C" stroke="rgba(0,0,0,0.05)" stroke-width="3" rx="20" transform="rotate(338 960 540)"/>
  <rect width="150" height="500" x="920" y="500" fill="#CBCACE" stroke="rgba(0,0,0,0.05)" stroke-width="3" rx="20" transform="rotate(-3 960 540)"/>
</svg>
