<svg xmlns="http://www.w3.org/2000/svg" viewBox="0 0 1920 1080">
  <rect width="100%" height="100%" fill="#242225"/>
  <rect width="150" height="500" x="920" y="500" fill="#934A4B" stroke="rgba(0,0,0,0.05)" stroke-width="3" rx="20" transform="rotate(14 960 540)"/>
  <rect width="150" height="500" x="920" y="500" fill="#C25B5B" stroke="rgba(0,0,0,0.05)" stroke-width="3" rx="20" transform="rotate(29 960 540)"/>
  <rect width="150" height="500" x="920" y="500" fill="#B06E4A" stroke="rgba(0,0,0,0.05)" stroke-width="3" rx="20" transform="rotate(43 960 540)"/>
  <rect width="150" height="500" x="920" y="500" fill="#C19944" stroke="rgba(0,0,0,0.05)" stroke-width="3" rx="20" transform="rotate(62 960 540)"/>
  <rect width="150" height="500" x="920" y="500" fill="#C5A25B" stroke="rgba(0,0,0,0.05)" stroke-width="3" rx="20" transform="rotate(73 960 540)"/>
  <rect width="150" height="500" x="920" y="500" fill="#735E35" stroke="rgba(0,0,0,0.05)" stroke-width="3" rx="20" transform="rotate(90 960 540)"/>
  <rect width="150" height="500" x="920" y="500" fill="#8B898C" stroke="rgba(0,0,0,0.05)" stroke-width="3" rx="20" transform="rotate(107 960 540)"/>
  <rect width="150" height="500" x="920" y="500" fill="#989699" stroke="rgba(0,0,0,0.05)" stroke-width="3" rx="20" transform="rotate(114 960 540)"/>
  <rect width="150" height="500" x="920" y="500" fill="#A5A3A6" stroke="rgba(0,0,0,0.05)" stroke-width="3" rx="20" transform="rotate(132 960 540)"/>
  <rect width="150" height="500" x="920" y="500" fill="#BB5D88" stroke="rgba(0,0,0,0.05)" stroke-width="3" rx="20" transform="rotate(147 960 540)"/>
  <rect width="150" height="500" x="920" y="500" fill="#513443" stroke="rgba(0,0,0,0.05)" stroke-width="3" rx="20" transform="rotate(165 960 540)"/>
  <rect width="150" height="500" x="920" y="500" fill="#727073" stroke="rgba(0,0,0,0.05)" stroke-width="3" rx="20" transform="rotate(174 960 540)"/>
  <rect width="150" height="500" x="920" y="500" fill="#585659" stroke="rgba(0,0,0,0.05)" stroke-width="3" rx="20" transform="rotate(189 960 540)"/>
  <rect width="150" height="500" x="920" y="500" fill="#765F83" stroke="rgba(0,0,0,0.05)" stroke-width="3" rx="20" transform="rotate(205 960 540)"/>
  <rect width="150" height="500" x="920" y="500" fill="#9467AD" stroke="rgba(0,0,0,0.05)" stroke-width="3" rx="20" transform="rotate(220 960 540)"/>
  <rect width="150" height="500" x="920" y="500" fill="#5B91B3" stroke="rgba(0,0,0,0.05)" stroke-width="3" rx="20" transform="rotate(238 960 540)"/>
  <rect width="150" height="500" x="920" y="500" fill="#809AAD" stroke="rgba(0,0,0,0.05)" stroke-width="3" rx="20" transform="rotate(258 960 540)"/>
  <rect width="150" height="500" x="920" y="500" fill="#405A6C" stroke="rgba(0,0,0,0.05)" stroke-width="3" rx="20" transform="rotate(265 960 540)"/>
  <rect width="150" height="500" x="920" y="500" fill="#BFBDC0" stroke="rgba(0,0,0,0.05)" stroke-width="3" rx="20" transform="rotate(278 960 540)"/>
  <rect width="150" height="500" x="920" y="500" fill="#D9D7DA" stroke="rgba(0,0,0,0.05)" stroke-width="3" rx="20" transform="rotate(301 960 540)"/>
  <rect width="150" height="500" x="920" y="500" fill="#59A257" stroke="rgba(0,0,0,0.05)" stroke-width="3" rx="20" transform="rotate(316 960 540)"/>
  <rect width="150" height="500" x="920" y="500" fill="#4DA371" stroke="rgba(0,0,0,0.05)" stroke-width="3" rx="20" transform="rotate(326 960 540)"/>
  <rect width="150" height="500" x="920" y="500" fill="#41A48B" stroke="rgba(0,0,0,0.05)" stroke-width="3" rx="20" transform="rotate(341 960 540)"/>
  <rect width="150" height="500" x="920" y="500" fill="#3E3C3F" stroke="rgba(0,0,0,0.05)" stroke-width="3" rx="20" transform="rotate(3 960 540)"/>
</svg>
