<svg xmlns="http://www.w3.org/2000/svg" viewBox="0 0 1920 1080">
  <rect width="100%" height="100%" fill="#DAE3E8"/>
  <rect width="150" height="500" x="920" y="500" fill="#D07072" stroke="rgba(0,0,0,0.05)" stroke-width="3" rx="20" transform="rotate(19 960 540)"/>
  <rect width="150" height="500" x="920" y="500" fill="#CC3F3F" stroke="rgba(0,0,0,0.05)" stroke-width="3" rx="20" transform="rotate(26 960 540)"/>
  <rect width="150" height="500" x="920" y="500" fill="#BC6F4D" stroke="rgba(0,0,0,0.05)" stroke-width="3" rx="20" transform="rotate(42 960 540)"/>
  <rect width="150" height="500" x="920" y="500" fill="#9F7F3F" stroke="rgba(0,0,0,0.05)" stroke-width="3" rx="20" transform="rotate(53 960 540)"/>
  <rect width="150" height="500" x="920" y="500" fill="#907540" stroke="rgba(0,0,0,0.05)" stroke-width="3" rx="20" transform="rotate(68 960 540)"/>
  <rect width="150" height="500" x="920" y="500" fill="#BDB194" stroke="rgba(0,0,0,0.05)" stroke-width="3" rx="20" transform="rotate(92 960 540)"/>
  <rect width="150" height="500" x="920" y="500" fill="#7F858B" stroke="rgba(0,0,0,0.05)" stroke-width="3" rx="20" transform="rotate(105 960 540)"/>
  <rect width="150" height="500" x="920" y="500" fill="#747A80" stroke="rgba(0,0,0,0.05)" stroke-width="3" rx="20" transform="rotate(119 960 540)"/>
  <rect width="150" height="500" x="920" y="500" fill="#686E74" stroke="rgba(0,0,0,0.05)" stroke-width="3" rx="20" transform="rotate(131 960 540)"/>
  <rect width="150" height="500" x="920" y="500" fill="#9C6293" stroke="rgba(0,0,0,0.05)" stroke-width="3" rx="20" transform="rotate(154 960 540)"/>
  <rect width="150" height="500" x="920" y="500" fill="#C7BCCF" stroke="rgba(0,0,0,0.05)" stroke-width="3" rx="20" transform="rotate(165 960 540)"/>
  <rect width="150" height="500" x="920" y="500" fill="#959DA2" stroke="rgba(0,0,0,0.05)" stroke-width="3" rx="20" transform="rotate(174 960 540)"/>
  <rect width="150" height="500" x="920" y="500" fill="#ACB4B9" stroke="rgba(0,0,0,0.05)" stroke-width="3" rx="20" transform="rotate(188 960 540)"/>
  <rect width="150" height="500" x="920" y="500" fill="#8E8EB4" stroke="rgba(0,0,0,0.05)" stroke-width="3" rx="20" transform="rotate(210 960 540)"/>
  <rect width="150" height="500" x="920" y="500" fill="#7067AE" stroke="rgba(0,0,0,0.05)" stroke-width="3" rx="20" transform="rotate(227 960 540)"/>
  <rect width="150" height="500" x="920" y="500" fill="#4A72A1" stroke="rgba(0,0,0,0.05)" stroke-width="3" rx="20" transform="rotate(244 960 540)"/>
  <rect width="150" height="500" x="920" y="500" fill="#59708B" stroke="rgba(0,0,0,0.05)" stroke-width="3" rx="20" transform="rotate(258 960 540)"/>
  <rect width="150" height="500" x="920" y="500" fill="#92ABC5" stroke="rgba(0,0,0,0.05)" stroke-width="3" rx="20" transform="rotate(272 960 540)"/>
  <rect width="150" height="500" x="920" y="500" fill="#51565C" stroke="rgba(0,0,0,0.05)" stroke-width="3" rx="20" transform="rotate(282 960 540)"/>
  <rect width="150" height="500" x="920" y="500" fill="#3A3F45" stroke="rgba(0,0,0,0.05)" stroke-width="3" rx="20" transform="rotate(298 960 540)"/>
  <rect width="150" height="500" x="920" y="500" fill="#598754" stroke="rgba(0,0,0,0.05)" stroke-width="3" rx="20" transform="rotate(309 960 540)"/>
  <rect width="150" height="500" x="920" y="500" fill="#438A6C" stroke="rgba(0,0,0,0.05)" stroke-width="3" rx="20" transform="rotate(331 960 540)"/>
  <rect width="150" height="500" x="920" y="500" fill="#2C8C84" stroke="rgba(0,0,0,0.05)" stroke-width="3" rx="20" transform="rotate(349 960 540)"/>
  <rect width="150" height="500" x="920" y="500" fill="#C3CCD1" stroke="rgba(0,0,0,0.05)" stroke-width="3" rx="20" transform="rotate(1 960 540)"/>
</svg>
